<mxfile host="www.draw.io" modified="2019-10-29T17:23:48.161Z" agent="Mozilla/5.0 (Macintosh; Intel Mac OS X 10_14_6) AppleWebKit/605.1.15 (KHTML, like Gecko) Version/13.0.2 Safari/605.1.15" etag="tQzRkrLVPMWfOFEGgYLW" version="12.1.8" type="github" pages="1">
  <diagram id="_Fhk49Xo4dAoTZwoI3iL" name="Page-1">
    <mxGraphModel dx="932" dy="1793" grid="1" gridSize="10" guides="1" tooltips="1" connect="1" arrows="1" fold="1" page="1" pageScale="1" pageWidth="827" pageHeight="1169" math="0" shadow="0">
      <root>
        <mxCell id="0"/>
        <mxCell id="1" parent="0"/>
        <mxCell id="hbklYA8rK2p1LF_I4JKN-1" value="Student" style="swimlane;fontStyle=0;childLayout=stackLayout;horizontal=1;startSize=26;fillColor=#e0e0e0;horizontalStack=0;resizeParent=1;resizeParentMax=0;resizeLast=0;collapsible=1;marginBottom=0;swimlaneFillColor=#ffffff;align=center;fontSize=14;" vertex="1" parent="1">
          <mxGeometry x="20" y="280" width="160" height="186" as="geometry"/>
        </mxCell>
        <mxCell id="hbklYA8rK2p1LF_I4JKN-2" value="ID" style="shape=partialRectangle;top=0;left=0;right=0;bottom=1;align=left;verticalAlign=middle;fillColor=none;spacingLeft=34;spacingRight=4;overflow=hidden;rotatable=0;points=[[0,0.5],[1,0.5]];portConstraint=eastwest;dropTarget=0;fontStyle=5;fontSize=12;" vertex="1" parent="hbklYA8rK2p1LF_I4JKN-1">
          <mxGeometry y="26" width="160" height="30" as="geometry"/>
        </mxCell>
        <mxCell id="hbklYA8rK2p1LF_I4JKN-3" value="PK" style="shape=partialRectangle;top=0;left=0;bottom=0;fillColor=none;align=left;verticalAlign=middle;spacingLeft=4;spacingRight=4;overflow=hidden;rotatable=0;points=[];portConstraint=eastwest;part=1;fontSize=12;" vertex="1" connectable="0" parent="hbklYA8rK2p1LF_I4JKN-2">
          <mxGeometry width="30" height="30" as="geometry"/>
        </mxCell>
        <mxCell id="hbklYA8rK2p1LF_I4JKN-4" value="Name" style="shape=partialRectangle;top=0;left=0;right=0;bottom=0;align=left;verticalAlign=top;fillColor=none;spacingLeft=34;spacingRight=4;overflow=hidden;rotatable=0;points=[[0,0.5],[1,0.5]];portConstraint=eastwest;dropTarget=0;fontSize=12;" vertex="1" parent="hbklYA8rK2p1LF_I4JKN-1">
          <mxGeometry y="56" width="160" height="26" as="geometry"/>
        </mxCell>
        <mxCell id="hbklYA8rK2p1LF_I4JKN-5" value="" style="shape=partialRectangle;top=0;left=0;bottom=0;fillColor=none;align=left;verticalAlign=top;spacingLeft=4;spacingRight=4;overflow=hidden;rotatable=0;points=[];portConstraint=eastwest;part=1;fontSize=12;" vertex="1" connectable="0" parent="hbklYA8rK2p1LF_I4JKN-4">
          <mxGeometry width="30" height="26" as="geometry"/>
        </mxCell>
        <mxCell id="hbklYA8rK2p1LF_I4JKN-6" value="Surname" style="shape=partialRectangle;top=0;left=0;right=0;bottom=0;align=left;verticalAlign=top;fillColor=none;spacingLeft=34;spacingRight=4;overflow=hidden;rotatable=0;points=[[0,0.5],[1,0.5]];portConstraint=eastwest;dropTarget=0;fontSize=12;" vertex="1" parent="hbklYA8rK2p1LF_I4JKN-1">
          <mxGeometry y="82" width="160" height="26" as="geometry"/>
        </mxCell>
        <mxCell id="hbklYA8rK2p1LF_I4JKN-7" value="" style="shape=partialRectangle;top=0;left=0;bottom=0;fillColor=none;align=left;verticalAlign=top;spacingLeft=4;spacingRight=4;overflow=hidden;rotatable=0;points=[];portConstraint=eastwest;part=1;fontSize=12;" vertex="1" connectable="0" parent="hbklYA8rK2p1LF_I4JKN-6">
          <mxGeometry width="30" height="26" as="geometry"/>
        </mxCell>
        <mxCell id="hbklYA8rK2p1LF_I4JKN-14" value="AverageLastSchool" style="shape=partialRectangle;top=0;left=0;right=0;bottom=0;align=left;verticalAlign=top;fillColor=none;spacingLeft=34;spacingRight=4;overflow=hidden;rotatable=0;points=[[0,0.5],[1,0.5]];portConstraint=eastwest;dropTarget=0;fontSize=12;" vertex="1" parent="hbklYA8rK2p1LF_I4JKN-1">
          <mxGeometry y="108" width="160" height="26" as="geometry"/>
        </mxCell>
        <mxCell id="hbklYA8rK2p1LF_I4JKN-15" value="" style="shape=partialRectangle;top=0;left=0;bottom=0;fillColor=none;align=left;verticalAlign=top;spacingLeft=4;spacingRight=4;overflow=hidden;rotatable=0;points=[];portConstraint=eastwest;part=1;fontSize=12;" vertex="1" connectable="0" parent="hbklYA8rK2p1LF_I4JKN-14">
          <mxGeometry width="30" height="26" as="geometry"/>
        </mxCell>
        <mxCell id="hbklYA8rK2p1LF_I4JKN-31" value="CF" style="shape=partialRectangle;top=0;left=0;right=0;bottom=0;align=left;verticalAlign=top;fillColor=none;spacingLeft=34;spacingRight=4;overflow=hidden;rotatable=0;points=[[0,0.5],[1,0.5]];portConstraint=eastwest;dropTarget=0;fontSize=12;" vertex="1" parent="hbklYA8rK2p1LF_I4JKN-1">
          <mxGeometry y="134" width="160" height="26" as="geometry"/>
        </mxCell>
        <mxCell id="hbklYA8rK2p1LF_I4JKN-32" value="" style="shape=partialRectangle;top=0;left=0;bottom=0;fillColor=none;align=left;verticalAlign=top;spacingLeft=4;spacingRight=4;overflow=hidden;rotatable=0;points=[];portConstraint=eastwest;part=1;fontSize=12;" vertex="1" connectable="0" parent="hbklYA8rK2p1LF_I4JKN-31">
          <mxGeometry width="30" height="26" as="geometry"/>
        </mxCell>
        <mxCell id="hbklYA8rK2p1LF_I4JKN-8" value="SpecificClassID" style="shape=partialRectangle;top=0;left=0;right=0;bottom=0;align=left;verticalAlign=top;fillColor=none;spacingLeft=34;spacingRight=4;overflow=hidden;rotatable=0;points=[[0,0.5],[1,0.5]];portConstraint=eastwest;dropTarget=0;fontSize=12;" vertex="1" parent="hbklYA8rK2p1LF_I4JKN-1">
          <mxGeometry y="160" width="160" height="26" as="geometry"/>
        </mxCell>
        <mxCell id="hbklYA8rK2p1LF_I4JKN-9" value="FK1" style="shape=partialRectangle;top=0;left=0;bottom=0;fillColor=none;align=left;verticalAlign=top;spacingLeft=4;spacingRight=4;overflow=hidden;rotatable=0;points=[];portConstraint=eastwest;part=1;fontSize=12;" vertex="1" connectable="0" parent="hbklYA8rK2p1LF_I4JKN-8">
          <mxGeometry width="30" height="26" as="geometry"/>
        </mxCell>
        <mxCell id="hbklYA8rK2p1LF_I4JKN-16" value="Teacher" style="swimlane;fontStyle=0;childLayout=stackLayout;horizontal=1;startSize=26;fillColor=#e0e0e0;horizontalStack=0;resizeParent=1;resizeParentMax=0;resizeLast=0;collapsible=1;marginBottom=0;swimlaneFillColor=#ffffff;align=center;fontSize=14;" vertex="1" parent="1">
          <mxGeometry x="650" y="294" width="160" height="160" as="geometry"/>
        </mxCell>
        <mxCell id="hbklYA8rK2p1LF_I4JKN-17" value="ID" style="shape=partialRectangle;top=0;left=0;right=0;bottom=1;align=left;verticalAlign=middle;fillColor=none;spacingLeft=34;spacingRight=4;overflow=hidden;rotatable=0;points=[[0,0.5],[1,0.5]];portConstraint=eastwest;dropTarget=0;fontStyle=5;fontSize=12;" vertex="1" parent="hbklYA8rK2p1LF_I4JKN-16">
          <mxGeometry y="26" width="160" height="30" as="geometry"/>
        </mxCell>
        <mxCell id="hbklYA8rK2p1LF_I4JKN-18" value="PK" style="shape=partialRectangle;top=0;left=0;bottom=0;fillColor=none;align=left;verticalAlign=middle;spacingLeft=4;spacingRight=4;overflow=hidden;rotatable=0;points=[];portConstraint=eastwest;part=1;fontSize=12;" vertex="1" connectable="0" parent="hbklYA8rK2p1LF_I4JKN-17">
          <mxGeometry width="30" height="30" as="geometry"/>
        </mxCell>
        <mxCell id="hbklYA8rK2p1LF_I4JKN-19" value="Name" style="shape=partialRectangle;top=0;left=0;right=0;bottom=0;align=left;verticalAlign=top;fillColor=none;spacingLeft=34;spacingRight=4;overflow=hidden;rotatable=0;points=[[0,0.5],[1,0.5]];portConstraint=eastwest;dropTarget=0;fontSize=12;" vertex="1" parent="hbklYA8rK2p1LF_I4JKN-16">
          <mxGeometry y="56" width="160" height="26" as="geometry"/>
        </mxCell>
        <mxCell id="hbklYA8rK2p1LF_I4JKN-20" value="" style="shape=partialRectangle;top=0;left=0;bottom=0;fillColor=none;align=left;verticalAlign=top;spacingLeft=4;spacingRight=4;overflow=hidden;rotatable=0;points=[];portConstraint=eastwest;part=1;fontSize=12;" vertex="1" connectable="0" parent="hbklYA8rK2p1LF_I4JKN-19">
          <mxGeometry width="30" height="26" as="geometry"/>
        </mxCell>
        <mxCell id="hbklYA8rK2p1LF_I4JKN-21" value="Surname" style="shape=partialRectangle;top=0;left=0;right=0;bottom=0;align=left;verticalAlign=top;fillColor=none;spacingLeft=34;spacingRight=4;overflow=hidden;rotatable=0;points=[[0,0.5],[1,0.5]];portConstraint=eastwest;dropTarget=0;fontSize=12;" vertex="1" parent="hbklYA8rK2p1LF_I4JKN-16">
          <mxGeometry y="82" width="160" height="26" as="geometry"/>
        </mxCell>
        <mxCell id="hbklYA8rK2p1LF_I4JKN-22" value="" style="shape=partialRectangle;top=0;left=0;bottom=0;fillColor=none;align=left;verticalAlign=top;spacingLeft=4;spacingRight=4;overflow=hidden;rotatable=0;points=[];portConstraint=eastwest;part=1;fontSize=12;" vertex="1" connectable="0" parent="hbklYA8rK2p1LF_I4JKN-21">
          <mxGeometry width="30" height="26" as="geometry"/>
        </mxCell>
        <mxCell id="hbklYA8rK2p1LF_I4JKN-25" value="MeetingHourID" style="shape=partialRectangle;top=0;left=0;right=0;bottom=0;align=left;verticalAlign=top;fillColor=none;spacingLeft=34;spacingRight=4;overflow=hidden;rotatable=0;points=[[0,0.5],[1,0.5]];portConstraint=eastwest;dropTarget=0;fontSize=12;" vertex="1" parent="hbklYA8rK2p1LF_I4JKN-16">
          <mxGeometry y="108" width="160" height="26" as="geometry"/>
        </mxCell>
        <mxCell id="hbklYA8rK2p1LF_I4JKN-26" value="" style="shape=partialRectangle;top=0;left=0;bottom=0;fillColor=none;align=left;verticalAlign=top;spacingLeft=4;spacingRight=4;overflow=hidden;rotatable=0;points=[];portConstraint=eastwest;part=1;fontSize=12;" vertex="1" connectable="0" parent="hbklYA8rK2p1LF_I4JKN-25">
          <mxGeometry width="30" height="26" as="geometry"/>
        </mxCell>
        <mxCell id="hbklYA8rK2p1LF_I4JKN-74" value="TopicID" style="shape=partialRectangle;top=0;left=0;right=0;bottom=0;align=left;verticalAlign=top;fillColor=none;spacingLeft=34;spacingRight=4;overflow=hidden;rotatable=0;points=[[0,0.5],[1,0.5]];portConstraint=eastwest;dropTarget=0;fontSize=12;" vertex="1" parent="hbklYA8rK2p1LF_I4JKN-16">
          <mxGeometry y="134" width="160" height="26" as="geometry"/>
        </mxCell>
        <mxCell id="hbklYA8rK2p1LF_I4JKN-75" value="FK3" style="shape=partialRectangle;top=0;left=0;bottom=0;fillColor=none;align=left;verticalAlign=top;spacingLeft=4;spacingRight=4;overflow=hidden;rotatable=0;points=[];portConstraint=eastwest;part=1;fontSize=12;" vertex="1" connectable="0" parent="hbklYA8rK2p1LF_I4JKN-74">
          <mxGeometry width="30" height="26" as="geometry"/>
        </mxCell>
        <mxCell id="hbklYA8rK2p1LF_I4JKN-33" value="YearClass" style="swimlane;fontStyle=0;childLayout=stackLayout;horizontal=1;startSize=26;fillColor=#e0e0e0;horizontalStack=0;resizeParent=1;resizeParentMax=0;resizeLast=0;collapsible=1;marginBottom=0;swimlaneFillColor=#ffffff;align=center;fontSize=14;" vertex="1" parent="1">
          <mxGeometry x="330" y="303" width="230" height="214" as="geometry"/>
        </mxCell>
        <mxCell id="hbklYA8rK2p1LF_I4JKN-34" value="ID" style="shape=partialRectangle;top=0;left=0;right=0;bottom=1;align=left;verticalAlign=middle;fillColor=none;spacingLeft=34;spacingRight=4;overflow=hidden;rotatable=0;points=[[0,0.5],[1,0.5]];portConstraint=eastwest;dropTarget=0;fontStyle=5;fontSize=12;" vertex="1" parent="hbklYA8rK2p1LF_I4JKN-33">
          <mxGeometry y="26" width="230" height="30" as="geometry"/>
        </mxCell>
        <mxCell id="hbklYA8rK2p1LF_I4JKN-35" value="PK" style="shape=partialRectangle;top=0;left=0;bottom=0;fillColor=none;align=left;verticalAlign=middle;spacingLeft=4;spacingRight=4;overflow=hidden;rotatable=0;points=[];portConstraint=eastwest;part=1;fontSize=12;" vertex="1" connectable="0" parent="hbklYA8rK2p1LF_I4JKN-34">
          <mxGeometry width="30" height="30" as="geometry"/>
        </mxCell>
        <mxCell id="hbklYA8rK2p1LF_I4JKN-36" value="ImmatricolationYear" style="shape=partialRectangle;top=0;left=0;right=0;bottom=0;align=left;verticalAlign=top;fillColor=none;spacingLeft=34;spacingRight=4;overflow=hidden;rotatable=0;points=[[0,0.5],[1,0.5]];portConstraint=eastwest;dropTarget=0;fontSize=12;" vertex="1" parent="hbklYA8rK2p1LF_I4JKN-33">
          <mxGeometry y="56" width="230" height="26" as="geometry"/>
        </mxCell>
        <mxCell id="hbklYA8rK2p1LF_I4JKN-37" value="" style="shape=partialRectangle;top=0;left=0;bottom=0;fillColor=none;align=left;verticalAlign=top;spacingLeft=4;spacingRight=4;overflow=hidden;rotatable=0;points=[];portConstraint=eastwest;part=1;fontSize=12;" vertex="1" connectable="0" parent="hbklYA8rK2p1LF_I4JKN-36">
          <mxGeometry width="30" height="26" as="geometry"/>
        </mxCell>
        <mxCell id="hbklYA8rK2p1LF_I4JKN-38" value="Year = {1,2,3,4, ...}" style="shape=partialRectangle;top=0;left=0;right=0;bottom=0;align=left;verticalAlign=top;fillColor=none;spacingLeft=34;spacingRight=4;overflow=hidden;rotatable=0;points=[[0,0.5],[1,0.5]];portConstraint=eastwest;dropTarget=0;fontSize=12;" vertex="1" parent="hbklYA8rK2p1LF_I4JKN-33">
          <mxGeometry y="82" width="230" height="26" as="geometry"/>
        </mxCell>
        <mxCell id="hbklYA8rK2p1LF_I4JKN-39" value="" style="shape=partialRectangle;top=0;left=0;bottom=0;fillColor=none;align=left;verticalAlign=top;spacingLeft=4;spacingRight=4;overflow=hidden;rotatable=0;points=[];portConstraint=eastwest;part=1;fontSize=12;" vertex="1" connectable="0" parent="hbklYA8rK2p1LF_I4JKN-38">
          <mxGeometry width="30" height="26" as="geometry"/>
        </mxCell>
        <mxCell id="hbklYA8rK2p1LF_I4JKN-44" value="" style="shape=partialRectangle;top=0;left=0;right=0;bottom=0;align=left;verticalAlign=top;fillColor=none;spacingLeft=34;spacingRight=4;overflow=hidden;rotatable=0;points=[[0,0.5],[1,0.5]];portConstraint=eastwest;dropTarget=0;fontSize=12;" vertex="1" parent="hbklYA8rK2p1LF_I4JKN-33">
          <mxGeometry y="108" width="230" height="106" as="geometry"/>
        </mxCell>
        <mxCell id="hbklYA8rK2p1LF_I4JKN-45" value="" style="shape=partialRectangle;top=0;left=0;bottom=0;fillColor=none;align=left;verticalAlign=top;spacingLeft=4;spacingRight=4;overflow=hidden;rotatable=0;points=[];portConstraint=eastwest;part=1;fontSize=12;" vertex="1" connectable="0" parent="hbklYA8rK2p1LF_I4JKN-44">
          <mxGeometry width="30" height="106" as="geometry"/>
        </mxCell>
        <mxCell id="hbklYA8rK2p1LF_I4JKN-195" style="edgeStyle=orthogonalEdgeStyle;rounded=0;orthogonalLoop=1;jettySize=auto;html=1;exitX=0.5;exitY=0;exitDx=0;exitDy=0;" edge="1" parent="1" source="hbklYA8rK2p1LF_I4JKN-46">
          <mxGeometry relative="1" as="geometry">
            <mxPoint x="379.9999999999998" y="510" as="targetPoint"/>
          </mxGeometry>
        </mxCell>
        <mxCell id="hbklYA8rK2p1LF_I4JKN-46" value="SpecificClass" style="swimlane;fontStyle=0;childLayout=stackLayout;horizontal=1;startSize=26;fillColor=#e0e0e0;horizontalStack=0;resizeParent=1;resizeParentMax=0;resizeLast=0;collapsible=1;marginBottom=0;swimlaneFillColor=#ffffff;align=center;fontSize=14;" vertex="1" parent="1">
          <mxGeometry x="320" y="600" width="230" height="266" as="geometry"/>
        </mxCell>
        <mxCell id="hbklYA8rK2p1LF_I4JKN-47" value="ID" style="shape=partialRectangle;top=0;left=0;right=0;bottom=1;align=left;verticalAlign=middle;fillColor=none;spacingLeft=34;spacingRight=4;overflow=hidden;rotatable=0;points=[[0,0.5],[1,0.5]];portConstraint=eastwest;dropTarget=0;fontStyle=5;fontSize=12;" vertex="1" parent="hbklYA8rK2p1LF_I4JKN-46">
          <mxGeometry y="26" width="230" height="30" as="geometry"/>
        </mxCell>
        <mxCell id="hbklYA8rK2p1LF_I4JKN-48" value="PK" style="shape=partialRectangle;top=0;left=0;bottom=0;fillColor=none;align=left;verticalAlign=middle;spacingLeft=4;spacingRight=4;overflow=hidden;rotatable=0;points=[];portConstraint=eastwest;part=1;fontSize=12;" vertex="1" connectable="0" parent="hbklYA8rK2p1LF_I4JKN-47">
          <mxGeometry width="30" height="30" as="geometry"/>
        </mxCell>
        <mxCell id="hbklYA8rK2p1LF_I4JKN-49" value="YearClassID" style="shape=partialRectangle;top=0;left=0;right=0;bottom=0;align=left;verticalAlign=top;fillColor=none;spacingLeft=34;spacingRight=4;overflow=hidden;rotatable=0;points=[[0,0.5],[1,0.5]];portConstraint=eastwest;dropTarget=0;fontSize=12;" vertex="1" parent="hbklYA8rK2p1LF_I4JKN-46">
          <mxGeometry y="56" width="230" height="26" as="geometry"/>
        </mxCell>
        <mxCell id="hbklYA8rK2p1LF_I4JKN-50" value="FK1" style="shape=partialRectangle;top=0;left=0;bottom=0;fillColor=none;align=left;verticalAlign=top;spacingLeft=4;spacingRight=4;overflow=hidden;rotatable=0;points=[];portConstraint=eastwest;part=1;fontSize=12;" vertex="1" connectable="0" parent="hbklYA8rK2p1LF_I4JKN-49">
          <mxGeometry width="29.943289224952743" height="26" as="geometry"/>
        </mxCell>
        <mxCell id="hbklYA8rK2p1LF_I4JKN-53" value="Section" style="shape=partialRectangle;top=0;left=0;right=0;bottom=0;align=left;verticalAlign=top;fillColor=none;spacingLeft=34;spacingRight=4;overflow=hidden;rotatable=0;points=[[0,0.5],[1,0.5]];portConstraint=eastwest;dropTarget=0;fontSize=12;" vertex="1" parent="hbklYA8rK2p1LF_I4JKN-46">
          <mxGeometry y="82" width="230" height="26" as="geometry"/>
        </mxCell>
        <mxCell id="hbklYA8rK2p1LF_I4JKN-54" value="" style="shape=partialRectangle;top=0;left=0;bottom=0;fillColor=none;align=left;verticalAlign=top;spacingLeft=4;spacingRight=4;overflow=hidden;rotatable=0;points=[];portConstraint=eastwest;part=1;fontSize=12;" vertex="1" connectable="0" parent="hbklYA8rK2p1LF_I4JKN-53">
          <mxGeometry width="30" height="26" as="geometry"/>
        </mxCell>
        <mxCell id="hbklYA8rK2p1LF_I4JKN-57" value="CourseID" style="shape=partialRectangle;top=0;left=0;right=0;bottom=0;align=left;verticalAlign=top;fillColor=none;spacingLeft=34;spacingRight=4;overflow=hidden;rotatable=0;points=[[0,0.5],[1,0.5]];portConstraint=eastwest;dropTarget=0;fontSize=12;" vertex="1" parent="hbklYA8rK2p1LF_I4JKN-46">
          <mxGeometry y="108" width="230" height="26" as="geometry"/>
        </mxCell>
        <mxCell id="hbklYA8rK2p1LF_I4JKN-58" value="FK2" style="shape=partialRectangle;top=0;left=0;bottom=0;fillColor=none;align=left;verticalAlign=top;spacingLeft=4;spacingRight=4;overflow=hidden;rotatable=0;points=[];portConstraint=eastwest;part=1;fontSize=12;" vertex="1" connectable="0" parent="hbklYA8rK2p1LF_I4JKN-57">
          <mxGeometry width="30" height="26" as="geometry"/>
        </mxCell>
        <mxCell id="hbklYA8rK2p1LF_I4JKN-125" value="UploadedPath" style="shape=partialRectangle;top=0;left=0;right=0;bottom=0;align=left;verticalAlign=top;fillColor=none;spacingLeft=34;spacingRight=4;overflow=hidden;rotatable=0;points=[[0,0.5],[1,0.5]];portConstraint=eastwest;dropTarget=0;fontSize=12;" vertex="1" parent="hbklYA8rK2p1LF_I4JKN-46">
          <mxGeometry y="134" width="230" height="26" as="geometry"/>
        </mxCell>
        <mxCell id="hbklYA8rK2p1LF_I4JKN-126" value="" style="shape=partialRectangle;top=0;left=0;bottom=0;fillColor=none;align=left;verticalAlign=top;spacingLeft=4;spacingRight=4;overflow=hidden;rotatable=0;points=[];portConstraint=eastwest;part=1;fontSize=12;" vertex="1" connectable="0" parent="hbklYA8rK2p1LF_I4JKN-125">
          <mxGeometry width="30" height="26" as="geometry"/>
        </mxCell>
        <mxCell id="hbklYA8rK2p1LF_I4JKN-55" value="//Year?" style="shape=partialRectangle;top=0;left=0;right=0;bottom=0;align=left;verticalAlign=top;fillColor=none;spacingLeft=34;spacingRight=4;overflow=hidden;rotatable=0;points=[[0,0.5],[1,0.5]];portConstraint=eastwest;dropTarget=0;fontSize=12;" vertex="1" parent="hbklYA8rK2p1LF_I4JKN-46">
          <mxGeometry y="160" width="230" height="106" as="geometry"/>
        </mxCell>
        <mxCell id="hbklYA8rK2p1LF_I4JKN-56" value="" style="shape=partialRectangle;top=0;left=0;bottom=0;fillColor=none;align=left;verticalAlign=top;spacingLeft=4;spacingRight=4;overflow=hidden;rotatable=0;points=[];portConstraint=eastwest;part=1;fontSize=12;" vertex="1" connectable="0" parent="hbklYA8rK2p1LF_I4JKN-55">
          <mxGeometry width="30" height="106" as="geometry"/>
        </mxCell>
        <mxCell id="hbklYA8rK2p1LF_I4JKN-59" value="Parent" style="swimlane;fontStyle=0;childLayout=stackLayout;horizontal=1;startSize=26;fillColor=#e0e0e0;horizontalStack=0;resizeParent=1;resizeParentMax=0;resizeLast=0;collapsible=1;marginBottom=0;swimlaneFillColor=#ffffff;align=center;fontSize=14;" vertex="1" parent="1">
          <mxGeometry x="120" y="-80" width="160" height="266" as="geometry"/>
        </mxCell>
        <mxCell id="hbklYA8rK2p1LF_I4JKN-60" value="ID" style="shape=partialRectangle;top=0;left=0;right=0;bottom=1;align=left;verticalAlign=middle;fillColor=none;spacingLeft=34;spacingRight=4;overflow=hidden;rotatable=0;points=[[0,0.5],[1,0.5]];portConstraint=eastwest;dropTarget=0;fontStyle=5;fontSize=12;" vertex="1" parent="hbklYA8rK2p1LF_I4JKN-59">
          <mxGeometry y="26" width="160" height="30" as="geometry"/>
        </mxCell>
        <mxCell id="hbklYA8rK2p1LF_I4JKN-61" value="PK" style="shape=partialRectangle;top=0;left=0;bottom=0;fillColor=none;align=left;verticalAlign=middle;spacingLeft=4;spacingRight=4;overflow=hidden;rotatable=0;points=[];portConstraint=eastwest;part=1;fontSize=12;" vertex="1" connectable="0" parent="hbklYA8rK2p1LF_I4JKN-60">
          <mxGeometry width="30" height="30" as="geometry"/>
        </mxCell>
        <mxCell id="hbklYA8rK2p1LF_I4JKN-62" value="Name" style="shape=partialRectangle;top=0;left=0;right=0;bottom=0;align=left;verticalAlign=top;fillColor=none;spacingLeft=34;spacingRight=4;overflow=hidden;rotatable=0;points=[[0,0.5],[1,0.5]];portConstraint=eastwest;dropTarget=0;fontSize=12;" vertex="1" parent="hbklYA8rK2p1LF_I4JKN-59">
          <mxGeometry y="56" width="160" height="26" as="geometry"/>
        </mxCell>
        <mxCell id="hbklYA8rK2p1LF_I4JKN-63" value="" style="shape=partialRectangle;top=0;left=0;bottom=0;fillColor=none;align=left;verticalAlign=top;spacingLeft=4;spacingRight=4;overflow=hidden;rotatable=0;points=[];portConstraint=eastwest;part=1;fontSize=12;" vertex="1" connectable="0" parent="hbklYA8rK2p1LF_I4JKN-62">
          <mxGeometry width="30" height="26" as="geometry"/>
        </mxCell>
        <mxCell id="hbklYA8rK2p1LF_I4JKN-64" value="Surname" style="shape=partialRectangle;top=0;left=0;right=0;bottom=0;align=left;verticalAlign=top;fillColor=none;spacingLeft=34;spacingRight=4;overflow=hidden;rotatable=0;points=[[0,0.5],[1,0.5]];portConstraint=eastwest;dropTarget=0;fontSize=12;" vertex="1" parent="hbklYA8rK2p1LF_I4JKN-59">
          <mxGeometry y="82" width="160" height="26" as="geometry"/>
        </mxCell>
        <mxCell id="hbklYA8rK2p1LF_I4JKN-65" value="" style="shape=partialRectangle;top=0;left=0;bottom=0;fillColor=none;align=left;verticalAlign=top;spacingLeft=4;spacingRight=4;overflow=hidden;rotatable=0;points=[];portConstraint=eastwest;part=1;fontSize=12;" vertex="1" connectable="0" parent="hbklYA8rK2p1LF_I4JKN-64">
          <mxGeometry width="30" height="26" as="geometry"/>
        </mxCell>
        <mxCell id="hbklYA8rK2p1LF_I4JKN-68" value="Email" style="shape=partialRectangle;top=0;left=0;right=0;bottom=0;align=left;verticalAlign=top;fillColor=none;spacingLeft=34;spacingRight=4;overflow=hidden;rotatable=0;points=[[0,0.5],[1,0.5]];portConstraint=eastwest;dropTarget=0;fontSize=12;" vertex="1" parent="hbklYA8rK2p1LF_I4JKN-59">
          <mxGeometry y="108" width="160" height="26" as="geometry"/>
        </mxCell>
        <mxCell id="hbklYA8rK2p1LF_I4JKN-69" value="" style="shape=partialRectangle;top=0;left=0;bottom=0;fillColor=none;align=left;verticalAlign=top;spacingLeft=4;spacingRight=4;overflow=hidden;rotatable=0;points=[];portConstraint=eastwest;part=1;fontSize=12;" vertex="1" connectable="0" parent="hbklYA8rK2p1LF_I4JKN-68">
          <mxGeometry width="30" height="26" as="geometry"/>
        </mxCell>
        <mxCell id="hbklYA8rK2p1LF_I4JKN-66" value="StudentID" style="shape=partialRectangle;top=0;left=0;right=0;bottom=0;align=left;verticalAlign=top;fillColor=none;spacingLeft=34;spacingRight=4;overflow=hidden;rotatable=0;points=[[0,0.5],[1,0.5]];portConstraint=eastwest;dropTarget=0;fontSize=12;" vertex="1" parent="hbklYA8rK2p1LF_I4JKN-59">
          <mxGeometry y="134" width="160" height="26" as="geometry"/>
        </mxCell>
        <mxCell id="hbklYA8rK2p1LF_I4JKN-67" value="FK1" style="shape=partialRectangle;top=0;left=0;bottom=0;fillColor=none;align=left;verticalAlign=top;spacingLeft=4;spacingRight=4;overflow=hidden;rotatable=0;points=[];portConstraint=eastwest;part=1;fontSize=12;" vertex="1" connectable="0" parent="hbklYA8rK2p1LF_I4JKN-66">
          <mxGeometry width="30" height="26" as="geometry"/>
        </mxCell>
        <mxCell id="hbklYA8rK2p1LF_I4JKN-70" value="" style="shape=partialRectangle;top=0;left=0;right=0;bottom=0;align=left;verticalAlign=top;fillColor=none;spacingLeft=34;spacingRight=4;overflow=hidden;rotatable=0;points=[[0,0.5],[1,0.5]];portConstraint=eastwest;dropTarget=0;fontSize=12;" vertex="1" parent="hbklYA8rK2p1LF_I4JKN-59">
          <mxGeometry y="160" width="160" height="106" as="geometry"/>
        </mxCell>
        <mxCell id="hbklYA8rK2p1LF_I4JKN-71" value="" style="shape=partialRectangle;top=0;left=0;bottom=0;fillColor=none;align=left;verticalAlign=top;spacingLeft=4;spacingRight=4;overflow=hidden;rotatable=0;points=[];portConstraint=eastwest;part=1;fontSize=12;" vertex="1" connectable="0" parent="hbklYA8rK2p1LF_I4JKN-70">
          <mxGeometry width="30" height="106" as="geometry"/>
        </mxCell>
        <mxCell id="hbklYA8rK2p1LF_I4JKN-196" style="edgeStyle=orthogonalEdgeStyle;rounded=0;orthogonalLoop=1;jettySize=auto;html=1;exitX=0.5;exitY=0;exitDx=0;exitDy=0;entryX=0.809;entryY=1.001;entryDx=0;entryDy=0;entryPerimeter=0;" edge="1" parent="1" source="hbklYA8rK2p1LF_I4JKN-76" target="hbklYA8rK2p1LF_I4JKN-44">
          <mxGeometry relative="1" as="geometry"/>
        </mxCell>
        <mxCell id="hbklYA8rK2p1LF_I4JKN-76" value="Course" style="swimlane;fontStyle=0;childLayout=stackLayout;horizontal=1;startSize=26;fillColor=#e0e0e0;horizontalStack=0;resizeParent=1;resizeParentMax=0;resizeLast=0;collapsible=1;marginBottom=0;swimlaneFillColor=#ffffff;align=center;fontSize=14;" vertex="1" parent="1">
          <mxGeometry x="596" y="626" width="230" height="240" as="geometry"/>
        </mxCell>
        <mxCell id="hbklYA8rK2p1LF_I4JKN-77" value="ID" style="shape=partialRectangle;top=0;left=0;right=0;bottom=1;align=left;verticalAlign=middle;fillColor=none;spacingLeft=34;spacingRight=4;overflow=hidden;rotatable=0;points=[[0,0.5],[1,0.5]];portConstraint=eastwest;dropTarget=0;fontStyle=5;fontSize=12;" vertex="1" parent="hbklYA8rK2p1LF_I4JKN-76">
          <mxGeometry y="26" width="230" height="30" as="geometry"/>
        </mxCell>
        <mxCell id="hbklYA8rK2p1LF_I4JKN-78" value="PK" style="shape=partialRectangle;top=0;left=0;bottom=0;fillColor=none;align=left;verticalAlign=middle;spacingLeft=4;spacingRight=4;overflow=hidden;rotatable=0;points=[];portConstraint=eastwest;part=1;fontSize=12;" vertex="1" connectable="0" parent="hbklYA8rK2p1LF_I4JKN-77">
          <mxGeometry width="30" height="30" as="geometry"/>
        </mxCell>
        <mxCell id="hbklYA8rK2p1LF_I4JKN-79" value="TopicID" style="shape=partialRectangle;top=0;left=0;right=0;bottom=0;align=left;verticalAlign=top;fillColor=none;spacingLeft=34;spacingRight=4;overflow=hidden;rotatable=0;points=[[0,0.5],[1,0.5]];portConstraint=eastwest;dropTarget=0;fontSize=12;" vertex="1" parent="hbklYA8rK2p1LF_I4JKN-76">
          <mxGeometry y="56" width="230" height="26" as="geometry"/>
        </mxCell>
        <mxCell id="hbklYA8rK2p1LF_I4JKN-80" value="FK1" style="shape=partialRectangle;top=0;left=0;bottom=0;fillColor=none;align=left;verticalAlign=top;spacingLeft=4;spacingRight=4;overflow=hidden;rotatable=0;points=[];portConstraint=eastwest;part=1;fontSize=12;" vertex="1" connectable="0" parent="hbklYA8rK2p1LF_I4JKN-79">
          <mxGeometry width="30" height="26" as="geometry"/>
        </mxCell>
        <mxCell id="hbklYA8rK2p1LF_I4JKN-100" value="TopicHourPerWeek" style="shape=partialRectangle;top=0;left=0;right=0;bottom=0;align=left;verticalAlign=top;fillColor=none;spacingLeft=34;spacingRight=4;overflow=hidden;rotatable=0;points=[[0,0.5],[1,0.5]];portConstraint=eastwest;dropTarget=0;fontSize=12;" vertex="1" parent="hbklYA8rK2p1LF_I4JKN-76">
          <mxGeometry y="82" width="230" height="26" as="geometry"/>
        </mxCell>
        <mxCell id="hbklYA8rK2p1LF_I4JKN-101" value="" style="shape=partialRectangle;top=0;left=0;bottom=0;fillColor=none;align=left;verticalAlign=top;spacingLeft=4;spacingRight=4;overflow=hidden;rotatable=0;points=[];portConstraint=eastwest;part=1;fontSize=12;" vertex="1" connectable="0" parent="hbklYA8rK2p1LF_I4JKN-100">
          <mxGeometry width="30" height="26" as="geometry"/>
        </mxCell>
        <mxCell id="hbklYA8rK2p1LF_I4JKN-104" value="..." style="shape=partialRectangle;top=0;left=0;right=0;bottom=0;align=left;verticalAlign=top;fillColor=none;spacingLeft=34;spacingRight=4;overflow=hidden;rotatable=0;points=[[0,0.5],[1,0.5]];portConstraint=eastwest;dropTarget=0;fontSize=12;" vertex="1" parent="hbklYA8rK2p1LF_I4JKN-76">
          <mxGeometry y="108" width="230" height="26" as="geometry"/>
        </mxCell>
        <mxCell id="hbklYA8rK2p1LF_I4JKN-105" value="" style="shape=partialRectangle;top=0;left=0;bottom=0;fillColor=none;align=left;verticalAlign=top;spacingLeft=4;spacingRight=4;overflow=hidden;rotatable=0;points=[];portConstraint=eastwest;part=1;fontSize=12;" vertex="1" connectable="0" parent="hbklYA8rK2p1LF_I4JKN-104">
          <mxGeometry width="30" height="26" as="geometry"/>
        </mxCell>
        <mxCell id="hbklYA8rK2p1LF_I4JKN-85" value="" style="shape=partialRectangle;top=0;left=0;right=0;bottom=0;align=left;verticalAlign=top;fillColor=none;spacingLeft=34;spacingRight=4;overflow=hidden;rotatable=0;points=[[0,0.5],[1,0.5]];portConstraint=eastwest;dropTarget=0;fontSize=12;" vertex="1" parent="hbklYA8rK2p1LF_I4JKN-76">
          <mxGeometry y="134" width="230" height="106" as="geometry"/>
        </mxCell>
        <mxCell id="hbklYA8rK2p1LF_I4JKN-86" value="" style="shape=partialRectangle;top=0;left=0;bottom=0;fillColor=none;align=left;verticalAlign=top;spacingLeft=4;spacingRight=4;overflow=hidden;rotatable=0;points=[];portConstraint=eastwest;part=1;fontSize=12;" vertex="1" connectable="0" parent="hbklYA8rK2p1LF_I4JKN-85">
          <mxGeometry width="30" height="106" as="geometry"/>
        </mxCell>
        <mxCell id="hbklYA8rK2p1LF_I4JKN-87" value="NotesRecord" style="swimlane;fontStyle=0;childLayout=stackLayout;horizontal=1;startSize=26;fillColor=#e0e0e0;horizontalStack=0;resizeParent=1;resizeParentMax=0;resizeLast=0;collapsible=1;marginBottom=0;swimlaneFillColor=#ffffff;align=center;fontSize=14;" vertex="1" parent="1">
          <mxGeometry x="650" y="110" width="160" height="134" as="geometry"/>
        </mxCell>
        <mxCell id="hbklYA8rK2p1LF_I4JKN-88" value="ID" style="shape=partialRectangle;top=0;left=0;right=0;bottom=1;align=left;verticalAlign=middle;fillColor=none;spacingLeft=34;spacingRight=4;overflow=hidden;rotatable=0;points=[[0,0.5],[1,0.5]];portConstraint=eastwest;dropTarget=0;fontStyle=5;fontSize=12;" vertex="1" parent="hbklYA8rK2p1LF_I4JKN-87">
          <mxGeometry y="26" width="160" height="30" as="geometry"/>
        </mxCell>
        <mxCell id="hbklYA8rK2p1LF_I4JKN-89" value="PK" style="shape=partialRectangle;top=0;left=0;bottom=0;fillColor=none;align=left;verticalAlign=middle;spacingLeft=4;spacingRight=4;overflow=hidden;rotatable=0;points=[];portConstraint=eastwest;part=1;fontSize=12;" vertex="1" connectable="0" parent="hbklYA8rK2p1LF_I4JKN-88">
          <mxGeometry width="30" height="30" as="geometry"/>
        </mxCell>
        <mxCell id="hbklYA8rK2p1LF_I4JKN-90" value="StudentID" style="shape=partialRectangle;top=0;left=0;right=0;bottom=0;align=left;verticalAlign=top;fillColor=none;spacingLeft=34;spacingRight=4;overflow=hidden;rotatable=0;points=[[0,0.5],[1,0.5]];portConstraint=eastwest;dropTarget=0;fontSize=12;" vertex="1" parent="hbklYA8rK2p1LF_I4JKN-87">
          <mxGeometry y="56" width="160" height="26" as="geometry"/>
        </mxCell>
        <mxCell id="hbklYA8rK2p1LF_I4JKN-91" value="FK1" style="shape=partialRectangle;top=0;left=0;bottom=0;fillColor=none;align=left;verticalAlign=top;spacingLeft=4;spacingRight=4;overflow=hidden;rotatable=0;points=[];portConstraint=eastwest;part=1;fontSize=12;" vertex="1" connectable="0" parent="hbklYA8rK2p1LF_I4JKN-90">
          <mxGeometry width="30" height="26" as="geometry"/>
        </mxCell>
        <mxCell id="hbklYA8rK2p1LF_I4JKN-92" value="Description" style="shape=partialRectangle;top=0;left=0;right=0;bottom=0;align=left;verticalAlign=top;fillColor=none;spacingLeft=34;spacingRight=4;overflow=hidden;rotatable=0;points=[[0,0.5],[1,0.5]];portConstraint=eastwest;dropTarget=0;fontSize=12;" vertex="1" parent="hbklYA8rK2p1LF_I4JKN-87">
          <mxGeometry y="82" width="160" height="26" as="geometry"/>
        </mxCell>
        <mxCell id="hbklYA8rK2p1LF_I4JKN-93" value="" style="shape=partialRectangle;top=0;left=0;bottom=0;fillColor=none;align=left;verticalAlign=top;spacingLeft=4;spacingRight=4;overflow=hidden;rotatable=0;points=[];portConstraint=eastwest;part=1;fontSize=12;" vertex="1" connectable="0" parent="hbklYA8rK2p1LF_I4JKN-92">
          <mxGeometry width="30" height="26" as="geometry"/>
        </mxCell>
        <mxCell id="hbklYA8rK2p1LF_I4JKN-96" value="TeacherID" style="shape=partialRectangle;top=0;left=0;right=0;bottom=0;align=left;verticalAlign=top;fillColor=none;spacingLeft=34;spacingRight=4;overflow=hidden;rotatable=0;points=[[0,0.5],[1,0.5]];portConstraint=eastwest;dropTarget=0;fontSize=12;" vertex="1" parent="hbklYA8rK2p1LF_I4JKN-87">
          <mxGeometry y="108" width="160" height="26" as="geometry"/>
        </mxCell>
        <mxCell id="hbklYA8rK2p1LF_I4JKN-97" value="FK2" style="shape=partialRectangle;top=0;left=0;bottom=0;fillColor=none;align=left;verticalAlign=top;spacingLeft=4;spacingRight=4;overflow=hidden;rotatable=0;points=[];portConstraint=eastwest;part=1;fontSize=12;" vertex="1" connectable="0" parent="hbklYA8rK2p1LF_I4JKN-96">
          <mxGeometry width="30" height="26" as="geometry"/>
        </mxCell>
        <mxCell id="hbklYA8rK2p1LF_I4JKN-106" value="NotPresentRecord" style="swimlane;fontStyle=0;childLayout=stackLayout;horizontal=1;startSize=26;fillColor=#e0e0e0;horizontalStack=0;resizeParent=1;resizeParentMax=0;resizeLast=0;collapsible=1;marginBottom=0;swimlaneFillColor=#ffffff;align=center;fontSize=14;" vertex="1" parent="1">
          <mxGeometry x="70" y="517" width="160" height="134" as="geometry"/>
        </mxCell>
        <mxCell id="hbklYA8rK2p1LF_I4JKN-107" value="ID" style="shape=partialRectangle;top=0;left=0;right=0;bottom=1;align=left;verticalAlign=middle;fillColor=none;spacingLeft=34;spacingRight=4;overflow=hidden;rotatable=0;points=[[0,0.5],[1,0.5]];portConstraint=eastwest;dropTarget=0;fontStyle=5;fontSize=12;" vertex="1" parent="hbklYA8rK2p1LF_I4JKN-106">
          <mxGeometry y="26" width="160" height="30" as="geometry"/>
        </mxCell>
        <mxCell id="hbklYA8rK2p1LF_I4JKN-108" value="PK" style="shape=partialRectangle;top=0;left=0;bottom=0;fillColor=none;align=left;verticalAlign=middle;spacingLeft=4;spacingRight=4;overflow=hidden;rotatable=0;points=[];portConstraint=eastwest;part=1;fontSize=12;" vertex="1" connectable="0" parent="hbklYA8rK2p1LF_I4JKN-107">
          <mxGeometry width="30" height="30" as="geometry"/>
        </mxCell>
        <mxCell id="hbklYA8rK2p1LF_I4JKN-109" value="StudentID" style="shape=partialRectangle;top=0;left=0;right=0;bottom=0;align=left;verticalAlign=top;fillColor=none;spacingLeft=34;spacingRight=4;overflow=hidden;rotatable=0;points=[[0,0.5],[1,0.5]];portConstraint=eastwest;dropTarget=0;fontSize=12;" vertex="1" parent="hbklYA8rK2p1LF_I4JKN-106">
          <mxGeometry y="56" width="160" height="26" as="geometry"/>
        </mxCell>
        <mxCell id="hbklYA8rK2p1LF_I4JKN-110" value="" style="shape=partialRectangle;top=0;left=0;bottom=0;fillColor=none;align=left;verticalAlign=top;spacingLeft=4;spacingRight=4;overflow=hidden;rotatable=0;points=[];portConstraint=eastwest;part=1;fontSize=12;" vertex="1" connectable="0" parent="hbklYA8rK2p1LF_I4JKN-109">
          <mxGeometry width="30" height="26" as="geometry"/>
        </mxCell>
        <mxCell id="hbklYA8rK2p1LF_I4JKN-111" value="SpecificClassID" style="shape=partialRectangle;top=0;left=0;right=0;bottom=0;align=left;verticalAlign=top;fillColor=none;spacingLeft=34;spacingRight=4;overflow=hidden;rotatable=0;points=[[0,0.5],[1,0.5]];portConstraint=eastwest;dropTarget=0;fontSize=12;" vertex="1" parent="hbklYA8rK2p1LF_I4JKN-106">
          <mxGeometry y="82" width="160" height="26" as="geometry"/>
        </mxCell>
        <mxCell id="hbklYA8rK2p1LF_I4JKN-112" value="" style="shape=partialRectangle;top=0;left=0;bottom=0;fillColor=none;align=left;verticalAlign=top;spacingLeft=4;spacingRight=4;overflow=hidden;rotatable=0;points=[];portConstraint=eastwest;part=1;fontSize=12;" vertex="1" connectable="0" parent="hbklYA8rK2p1LF_I4JKN-111">
          <mxGeometry width="30" height="26" as="geometry"/>
        </mxCell>
        <mxCell id="hbklYA8rK2p1LF_I4JKN-113" value="HourSlot" style="shape=partialRectangle;top=0;left=0;right=0;bottom=0;align=left;verticalAlign=top;fillColor=none;spacingLeft=34;spacingRight=4;overflow=hidden;rotatable=0;points=[[0,0.5],[1,0.5]];portConstraint=eastwest;dropTarget=0;fontSize=12;" vertex="1" parent="hbklYA8rK2p1LF_I4JKN-106">
          <mxGeometry y="108" width="160" height="26" as="geometry"/>
        </mxCell>
        <mxCell id="hbklYA8rK2p1LF_I4JKN-114" value="" style="shape=partialRectangle;top=0;left=0;bottom=0;fillColor=none;align=left;verticalAlign=top;spacingLeft=4;spacingRight=4;overflow=hidden;rotatable=0;points=[];portConstraint=eastwest;part=1;fontSize=12;" vertex="1" connectable="0" parent="hbklYA8rK2p1LF_I4JKN-113">
          <mxGeometry width="30" height="26" as="geometry"/>
        </mxCell>
        <mxCell id="hbklYA8rK2p1LF_I4JKN-127" value="Officer" style="swimlane;fontStyle=0;childLayout=stackLayout;horizontal=1;startSize=26;fillColor=#e0e0e0;horizontalStack=0;resizeParent=1;resizeParentMax=0;resizeLast=0;collapsible=1;marginBottom=0;swimlaneFillColor=#ffffff;align=center;fontSize=14;" vertex="1" parent="1">
          <mxGeometry x="5" y="975" width="230" height="160" as="geometry"/>
        </mxCell>
        <mxCell id="hbklYA8rK2p1LF_I4JKN-128" value="ID" style="shape=partialRectangle;top=0;left=0;right=0;bottom=1;align=left;verticalAlign=middle;fillColor=none;spacingLeft=34;spacingRight=4;overflow=hidden;rotatable=0;points=[[0,0.5],[1,0.5]];portConstraint=eastwest;dropTarget=0;fontStyle=5;fontSize=12;" vertex="1" parent="hbklYA8rK2p1LF_I4JKN-127">
          <mxGeometry y="26" width="230" height="30" as="geometry"/>
        </mxCell>
        <mxCell id="hbklYA8rK2p1LF_I4JKN-129" value="PK" style="shape=partialRectangle;top=0;left=0;bottom=0;fillColor=none;align=left;verticalAlign=middle;spacingLeft=4;spacingRight=4;overflow=hidden;rotatable=0;points=[];portConstraint=eastwest;part=1;fontSize=12;" vertex="1" connectable="0" parent="hbklYA8rK2p1LF_I4JKN-128">
          <mxGeometry width="30" height="30" as="geometry"/>
        </mxCell>
        <mxCell id="hbklYA8rK2p1LF_I4JKN-130" value="Name" style="shape=partialRectangle;top=0;left=0;right=0;bottom=0;align=left;verticalAlign=top;fillColor=none;spacingLeft=34;spacingRight=4;overflow=hidden;rotatable=0;points=[[0,0.5],[1,0.5]];portConstraint=eastwest;dropTarget=0;fontSize=12;" vertex="1" parent="hbklYA8rK2p1LF_I4JKN-127">
          <mxGeometry y="56" width="230" height="26" as="geometry"/>
        </mxCell>
        <mxCell id="hbklYA8rK2p1LF_I4JKN-131" value="" style="shape=partialRectangle;top=0;left=0;bottom=0;fillColor=none;align=left;verticalAlign=top;spacingLeft=4;spacingRight=4;overflow=hidden;rotatable=0;points=[];portConstraint=eastwest;part=1;fontSize=12;" vertex="1" connectable="0" parent="hbklYA8rK2p1LF_I4JKN-130">
          <mxGeometry width="30" height="26" as="geometry"/>
        </mxCell>
        <mxCell id="hbklYA8rK2p1LF_I4JKN-132" value="Email" style="shape=partialRectangle;top=0;left=0;right=0;bottom=0;align=left;verticalAlign=top;fillColor=none;spacingLeft=34;spacingRight=4;overflow=hidden;rotatable=0;points=[[0,0.5],[1,0.5]];portConstraint=eastwest;dropTarget=0;fontSize=12;" vertex="1" parent="hbklYA8rK2p1LF_I4JKN-127">
          <mxGeometry y="82" width="230" height="26" as="geometry"/>
        </mxCell>
        <mxCell id="hbklYA8rK2p1LF_I4JKN-133" value="" style="shape=partialRectangle;top=0;left=0;bottom=0;fillColor=none;align=left;verticalAlign=top;spacingLeft=4;spacingRight=4;overflow=hidden;rotatable=0;points=[];portConstraint=eastwest;part=1;fontSize=12;" vertex="1" connectable="0" parent="hbklYA8rK2p1LF_I4JKN-132">
          <mxGeometry width="30" height="26" as="geometry"/>
        </mxCell>
        <mxCell id="hbklYA8rK2p1LF_I4JKN-134" value="Password" style="shape=partialRectangle;top=0;left=0;right=0;bottom=0;align=left;verticalAlign=top;fillColor=none;spacingLeft=34;spacingRight=4;overflow=hidden;rotatable=0;points=[[0,0.5],[1,0.5]];portConstraint=eastwest;dropTarget=0;fontSize=12;" vertex="1" parent="hbklYA8rK2p1LF_I4JKN-127">
          <mxGeometry y="108" width="230" height="26" as="geometry"/>
        </mxCell>
        <mxCell id="hbklYA8rK2p1LF_I4JKN-135" value="" style="shape=partialRectangle;top=0;left=0;bottom=0;fillColor=none;align=left;verticalAlign=top;spacingLeft=4;spacingRight=4;overflow=hidden;rotatable=0;points=[];portConstraint=eastwest;part=1;fontSize=12;" vertex="1" connectable="0" parent="hbklYA8rK2p1LF_I4JKN-134">
          <mxGeometry width="30" height="26" as="geometry"/>
        </mxCell>
        <mxCell id="hbklYA8rK2p1LF_I4JKN-138" value="" style="shape=partialRectangle;top=0;left=0;right=0;bottom=0;align=left;verticalAlign=top;fillColor=none;spacingLeft=34;spacingRight=4;overflow=hidden;rotatable=0;points=[[0,0.5],[1,0.5]];portConstraint=eastwest;dropTarget=0;fontSize=12;" vertex="1" parent="hbklYA8rK2p1LF_I4JKN-127">
          <mxGeometry y="134" width="230" height="26" as="geometry"/>
        </mxCell>
        <mxCell id="hbklYA8rK2p1LF_I4JKN-139" value="" style="shape=partialRectangle;top=0;left=0;bottom=0;fillColor=none;align=left;verticalAlign=top;spacingLeft=4;spacingRight=4;overflow=hidden;rotatable=0;points=[];portConstraint=eastwest;part=1;fontSize=12;" vertex="1" connectable="0" parent="hbklYA8rK2p1LF_I4JKN-138">
          <mxGeometry width="30" height="26" as="geometry"/>
        </mxCell>
        <mxCell id="hbklYA8rK2p1LF_I4JKN-140" value="Principal" style="swimlane;fontStyle=0;childLayout=stackLayout;horizontal=1;startSize=26;fillColor=#e0e0e0;horizontalStack=0;resizeParent=1;resizeParentMax=0;resizeLast=0;collapsible=1;marginBottom=0;swimlaneFillColor=#ffffff;align=center;fontSize=14;" vertex="1" parent="1">
          <mxGeometry x="580" y="960" width="230" height="190" as="geometry"/>
        </mxCell>
        <mxCell id="hbklYA8rK2p1LF_I4JKN-141" value="ID" style="shape=partialRectangle;top=0;left=0;right=0;bottom=1;align=left;verticalAlign=middle;fillColor=none;spacingLeft=34;spacingRight=4;overflow=hidden;rotatable=0;points=[[0,0.5],[1,0.5]];portConstraint=eastwest;dropTarget=0;fontStyle=5;fontSize=12;" vertex="1" parent="hbklYA8rK2p1LF_I4JKN-140">
          <mxGeometry y="26" width="230" height="30" as="geometry"/>
        </mxCell>
        <mxCell id="hbklYA8rK2p1LF_I4JKN-142" value="PK" style="shape=partialRectangle;top=0;left=0;bottom=0;fillColor=none;align=left;verticalAlign=middle;spacingLeft=4;spacingRight=4;overflow=hidden;rotatable=0;points=[];portConstraint=eastwest;part=1;fontSize=12;" vertex="1" connectable="0" parent="hbklYA8rK2p1LF_I4JKN-141">
          <mxGeometry width="30" height="30" as="geometry"/>
        </mxCell>
        <mxCell id="hbklYA8rK2p1LF_I4JKN-143" value="Name" style="shape=partialRectangle;top=0;left=0;right=0;bottom=0;align=left;verticalAlign=top;fillColor=none;spacingLeft=34;spacingRight=4;overflow=hidden;rotatable=0;points=[[0,0.5],[1,0.5]];portConstraint=eastwest;dropTarget=0;fontSize=12;" vertex="1" parent="hbklYA8rK2p1LF_I4JKN-140">
          <mxGeometry y="56" width="230" height="26" as="geometry"/>
        </mxCell>
        <mxCell id="hbklYA8rK2p1LF_I4JKN-144" value="" style="shape=partialRectangle;top=0;left=0;bottom=0;fillColor=none;align=left;verticalAlign=top;spacingLeft=4;spacingRight=4;overflow=hidden;rotatable=0;points=[];portConstraint=eastwest;part=1;fontSize=12;" vertex="1" connectable="0" parent="hbklYA8rK2p1LF_I4JKN-143">
          <mxGeometry width="30" height="26" as="geometry"/>
        </mxCell>
        <mxCell id="hbklYA8rK2p1LF_I4JKN-145" value="Email" style="shape=partialRectangle;top=0;left=0;right=0;bottom=0;align=left;verticalAlign=top;fillColor=none;spacingLeft=34;spacingRight=4;overflow=hidden;rotatable=0;points=[[0,0.5],[1,0.5]];portConstraint=eastwest;dropTarget=0;fontSize=12;" vertex="1" parent="hbklYA8rK2p1LF_I4JKN-140">
          <mxGeometry y="82" width="230" height="26" as="geometry"/>
        </mxCell>
        <mxCell id="hbklYA8rK2p1LF_I4JKN-146" value="" style="shape=partialRectangle;top=0;left=0;bottom=0;fillColor=none;align=left;verticalAlign=top;spacingLeft=4;spacingRight=4;overflow=hidden;rotatable=0;points=[];portConstraint=eastwest;part=1;fontSize=12;" vertex="1" connectable="0" parent="hbklYA8rK2p1LF_I4JKN-145">
          <mxGeometry width="30" height="26" as="geometry"/>
        </mxCell>
        <mxCell id="hbklYA8rK2p1LF_I4JKN-147" value="Password" style="shape=partialRectangle;top=0;left=0;right=0;bottom=0;align=left;verticalAlign=top;fillColor=none;spacingLeft=34;spacingRight=4;overflow=hidden;rotatable=0;points=[[0,0.5],[1,0.5]];portConstraint=eastwest;dropTarget=0;fontSize=12;" vertex="1" parent="hbklYA8rK2p1LF_I4JKN-140">
          <mxGeometry y="108" width="230" height="26" as="geometry"/>
        </mxCell>
        <mxCell id="hbklYA8rK2p1LF_I4JKN-148" value="" style="shape=partialRectangle;top=0;left=0;bottom=0;fillColor=none;align=left;verticalAlign=top;spacingLeft=4;spacingRight=4;overflow=hidden;rotatable=0;points=[];portConstraint=eastwest;part=1;fontSize=12;" vertex="1" connectable="0" parent="hbklYA8rK2p1LF_I4JKN-147">
          <mxGeometry width="30" height="26" as="geometry"/>
        </mxCell>
        <mxCell id="hbklYA8rK2p1LF_I4JKN-149" value="" style="shape=partialRectangle;top=0;left=0;right=0;bottom=0;align=left;verticalAlign=top;fillColor=none;spacingLeft=34;spacingRight=4;overflow=hidden;rotatable=0;points=[[0,0.5],[1,0.5]];portConstraint=eastwest;dropTarget=0;fontSize=12;" vertex="1" parent="hbklYA8rK2p1LF_I4JKN-140">
          <mxGeometry y="134" width="230" height="26" as="geometry"/>
        </mxCell>
        <mxCell id="hbklYA8rK2p1LF_I4JKN-150" value="" style="shape=partialRectangle;top=0;left=0;bottom=0;fillColor=none;align=left;verticalAlign=top;spacingLeft=4;spacingRight=4;overflow=hidden;rotatable=0;points=[];portConstraint=eastwest;part=1;fontSize=12;" vertex="1" connectable="0" parent="hbklYA8rK2p1LF_I4JKN-149">
          <mxGeometry width="30" height="26" as="geometry"/>
        </mxCell>
        <mxCell id="hbklYA8rK2p1LF_I4JKN-151" value="" style="shape=partialRectangle;top=0;left=0;right=0;bottom=0;align=left;verticalAlign=top;fillColor=none;spacingLeft=34;spacingRight=4;overflow=hidden;rotatable=0;points=[[0,0.5],[1,0.5]];portConstraint=eastwest;dropTarget=0;fontSize=12;" vertex="1" parent="hbklYA8rK2p1LF_I4JKN-140">
          <mxGeometry y="160" width="230" height="30" as="geometry"/>
        </mxCell>
        <mxCell id="hbklYA8rK2p1LF_I4JKN-152" value="" style="shape=partialRectangle;top=0;left=0;bottom=0;fillColor=none;align=left;verticalAlign=top;spacingLeft=4;spacingRight=4;overflow=hidden;rotatable=0;points=[];portConstraint=eastwest;part=1;fontSize=12;" vertex="1" connectable="0" parent="hbklYA8rK2p1LF_I4JKN-151">
          <mxGeometry width="30" height="30" as="geometry"/>
        </mxCell>
        <mxCell id="hbklYA8rK2p1LF_I4JKN-153" value="MarksRecord" style="swimlane;fontStyle=0;childLayout=stackLayout;horizontal=1;startSize=26;fillColor=#e0e0e0;horizontalStack=0;resizeParent=1;resizeParentMax=0;resizeLast=0;collapsible=1;marginBottom=0;swimlaneFillColor=#ffffff;align=center;fontSize=14;" vertex="1" parent="1">
          <mxGeometry x="320" y="-68" width="160" height="160" as="geometry"/>
        </mxCell>
        <mxCell id="hbklYA8rK2p1LF_I4JKN-154" value="ID" style="shape=partialRectangle;top=0;left=0;right=0;bottom=1;align=left;verticalAlign=middle;fillColor=none;spacingLeft=34;spacingRight=4;overflow=hidden;rotatable=0;points=[[0,0.5],[1,0.5]];portConstraint=eastwest;dropTarget=0;fontStyle=5;fontSize=12;" vertex="1" parent="hbklYA8rK2p1LF_I4JKN-153">
          <mxGeometry y="26" width="160" height="30" as="geometry"/>
        </mxCell>
        <mxCell id="hbklYA8rK2p1LF_I4JKN-155" value="PK" style="shape=partialRectangle;top=0;left=0;bottom=0;fillColor=none;align=left;verticalAlign=middle;spacingLeft=4;spacingRight=4;overflow=hidden;rotatable=0;points=[];portConstraint=eastwest;part=1;fontSize=12;" vertex="1" connectable="0" parent="hbklYA8rK2p1LF_I4JKN-154">
          <mxGeometry width="30" height="30" as="geometry"/>
        </mxCell>
        <mxCell id="hbklYA8rK2p1LF_I4JKN-156" value="StudentID" style="shape=partialRectangle;top=0;left=0;right=0;bottom=0;align=left;verticalAlign=top;fillColor=none;spacingLeft=34;spacingRight=4;overflow=hidden;rotatable=0;points=[[0,0.5],[1,0.5]];portConstraint=eastwest;dropTarget=0;fontSize=12;" vertex="1" parent="hbklYA8rK2p1LF_I4JKN-153">
          <mxGeometry y="56" width="160" height="26" as="geometry"/>
        </mxCell>
        <mxCell id="hbklYA8rK2p1LF_I4JKN-157" value="FK1" style="shape=partialRectangle;top=0;left=0;bottom=0;fillColor=none;align=left;verticalAlign=top;spacingLeft=4;spacingRight=4;overflow=hidden;rotatable=0;points=[];portConstraint=eastwest;part=1;fontSize=12;" vertex="1" connectable="0" parent="hbklYA8rK2p1LF_I4JKN-156">
          <mxGeometry width="30" height="26" as="geometry"/>
        </mxCell>
        <mxCell id="hbklYA8rK2p1LF_I4JKN-158" value="Mark" style="shape=partialRectangle;top=0;left=0;right=0;bottom=0;align=left;verticalAlign=top;fillColor=none;spacingLeft=34;spacingRight=4;overflow=hidden;rotatable=0;points=[[0,0.5],[1,0.5]];portConstraint=eastwest;dropTarget=0;fontSize=12;" vertex="1" parent="hbklYA8rK2p1LF_I4JKN-153">
          <mxGeometry y="82" width="160" height="26" as="geometry"/>
        </mxCell>
        <mxCell id="hbklYA8rK2p1LF_I4JKN-159" value="" style="shape=partialRectangle;top=0;left=0;bottom=0;fillColor=none;align=left;verticalAlign=top;spacingLeft=4;spacingRight=4;overflow=hidden;rotatable=0;points=[];portConstraint=eastwest;part=1;fontSize=12;" vertex="1" connectable="0" parent="hbklYA8rK2p1LF_I4JKN-158">
          <mxGeometry width="30" height="26" as="geometry"/>
        </mxCell>
        <mxCell id="hbklYA8rK2p1LF_I4JKN-160" value="TeacherID" style="shape=partialRectangle;top=0;left=0;right=0;bottom=0;align=left;verticalAlign=top;fillColor=none;spacingLeft=34;spacingRight=4;overflow=hidden;rotatable=0;points=[[0,0.5],[1,0.5]];portConstraint=eastwest;dropTarget=0;fontSize=12;" vertex="1" parent="hbklYA8rK2p1LF_I4JKN-153">
          <mxGeometry y="108" width="160" height="26" as="geometry"/>
        </mxCell>
        <mxCell id="hbklYA8rK2p1LF_I4JKN-161" value="FK2" style="shape=partialRectangle;top=0;left=0;bottom=0;fillColor=none;align=left;verticalAlign=top;spacingLeft=4;spacingRight=4;overflow=hidden;rotatable=0;points=[];portConstraint=eastwest;part=1;fontSize=12;" vertex="1" connectable="0" parent="hbklYA8rK2p1LF_I4JKN-160">
          <mxGeometry width="30" height="26" as="geometry"/>
        </mxCell>
        <mxCell id="hbklYA8rK2p1LF_I4JKN-267" value="Timestamp" style="shape=partialRectangle;top=0;left=0;right=0;bottom=0;align=left;verticalAlign=top;fillColor=none;spacingLeft=34;spacingRight=4;overflow=hidden;rotatable=0;points=[[0,0.5],[1,0.5]];portConstraint=eastwest;dropTarget=0;fontSize=12;" vertex="1" parent="hbklYA8rK2p1LF_I4JKN-153">
          <mxGeometry y="134" width="160" height="26" as="geometry"/>
        </mxCell>
        <mxCell id="hbklYA8rK2p1LF_I4JKN-268" value="" style="shape=partialRectangle;top=0;left=0;bottom=0;fillColor=none;align=left;verticalAlign=top;spacingLeft=4;spacingRight=4;overflow=hidden;rotatable=0;points=[];portConstraint=eastwest;part=1;fontSize=12;" vertex="1" connectable="0" parent="hbklYA8rK2p1LF_I4JKN-267">
          <mxGeometry width="30" height="26" as="geometry"/>
        </mxCell>
        <mxCell id="hbklYA8rK2p1LF_I4JKN-162" value="Homework" style="swimlane;fontStyle=0;childLayout=stackLayout;horizontal=1;startSize=26;fillColor=#e0e0e0;horizontalStack=0;resizeParent=1;resizeParentMax=0;resizeLast=0;collapsible=1;marginBottom=0;swimlaneFillColor=#ffffff;align=center;fontSize=14;" vertex="1" parent="1">
          <mxGeometry x="5" y="690" width="250" height="240" as="geometry"/>
        </mxCell>
        <mxCell id="hbklYA8rK2p1LF_I4JKN-163" value="ID" style="shape=partialRectangle;top=0;left=0;right=0;bottom=1;align=left;verticalAlign=middle;fillColor=none;spacingLeft=34;spacingRight=4;overflow=hidden;rotatable=0;points=[[0,0.5],[1,0.5]];portConstraint=eastwest;dropTarget=0;fontStyle=5;fontSize=12;" vertex="1" parent="hbklYA8rK2p1LF_I4JKN-162">
          <mxGeometry y="26" width="250" height="30" as="geometry"/>
        </mxCell>
        <mxCell id="hbklYA8rK2p1LF_I4JKN-164" value="PK" style="shape=partialRectangle;top=0;left=0;bottom=0;fillColor=none;align=left;verticalAlign=middle;spacingLeft=4;spacingRight=4;overflow=hidden;rotatable=0;points=[];portConstraint=eastwest;part=1;fontSize=12;" vertex="1" connectable="0" parent="hbklYA8rK2p1LF_I4JKN-163">
          <mxGeometry width="30" height="30" as="geometry"/>
        </mxCell>
        <mxCell id="hbklYA8rK2p1LF_I4JKN-165" value="Description" style="shape=partialRectangle;top=0;left=0;right=0;bottom=0;align=left;verticalAlign=top;fillColor=none;spacingLeft=34;spacingRight=4;overflow=hidden;rotatable=0;points=[[0,0.5],[1,0.5]];portConstraint=eastwest;dropTarget=0;fontSize=12;" vertex="1" parent="hbklYA8rK2p1LF_I4JKN-162">
          <mxGeometry y="56" width="250" height="26" as="geometry"/>
        </mxCell>
        <mxCell id="hbklYA8rK2p1LF_I4JKN-166" value="" style="shape=partialRectangle;top=0;left=0;bottom=0;fillColor=none;align=left;verticalAlign=top;spacingLeft=4;spacingRight=4;overflow=hidden;rotatable=0;points=[];portConstraint=eastwest;part=1;fontSize=12;" vertex="1" connectable="0" parent="hbklYA8rK2p1LF_I4JKN-165">
          <mxGeometry width="30" height="26" as="geometry"/>
        </mxCell>
        <mxCell id="hbklYA8rK2p1LF_I4JKN-167" value="SpecificClassID" style="shape=partialRectangle;top=0;left=0;right=0;bottom=0;align=left;verticalAlign=top;fillColor=none;spacingLeft=34;spacingRight=4;overflow=hidden;rotatable=0;points=[[0,0.5],[1,0.5]];portConstraint=eastwest;dropTarget=0;fontSize=12;" vertex="1" parent="hbklYA8rK2p1LF_I4JKN-162">
          <mxGeometry y="82" width="250" height="26" as="geometry"/>
        </mxCell>
        <mxCell id="hbklYA8rK2p1LF_I4JKN-168" value="FK1" style="shape=partialRectangle;top=0;left=0;bottom=0;fillColor=none;align=left;verticalAlign=top;spacingLeft=4;spacingRight=4;overflow=hidden;rotatable=0;points=[];portConstraint=eastwest;part=1;fontSize=12;" vertex="1" connectable="0" parent="hbklYA8rK2p1LF_I4JKN-167">
          <mxGeometry width="30" height="26" as="geometry"/>
        </mxCell>
        <mxCell id="hbklYA8rK2p1LF_I4JKN-169" value="TeacherID" style="shape=partialRectangle;top=0;left=0;right=0;bottom=0;align=left;verticalAlign=top;fillColor=none;spacingLeft=34;spacingRight=4;overflow=hidden;rotatable=0;points=[[0,0.5],[1,0.5]];portConstraint=eastwest;dropTarget=0;fontSize=12;" vertex="1" parent="hbklYA8rK2p1LF_I4JKN-162">
          <mxGeometry y="108" width="250" height="26" as="geometry"/>
        </mxCell>
        <mxCell id="hbklYA8rK2p1LF_I4JKN-170" value="FK2" style="shape=partialRectangle;top=0;left=0;bottom=0;fillColor=none;align=left;verticalAlign=top;spacingLeft=4;spacingRight=4;overflow=hidden;rotatable=0;points=[];portConstraint=eastwest;part=1;fontSize=12;" vertex="1" connectable="0" parent="hbklYA8rK2p1LF_I4JKN-169">
          <mxGeometry width="29.943289224952736" height="26" as="geometry"/>
        </mxCell>
        <mxCell id="hbklYA8rK2p1LF_I4JKN-171" value="//Assume next lesson or add a date &#xa;too?" style="shape=partialRectangle;top=0;left=0;right=0;bottom=0;align=left;verticalAlign=top;fillColor=none;spacingLeft=34;spacingRight=4;overflow=hidden;rotatable=0;points=[[0,0.5],[1,0.5]];portConstraint=eastwest;dropTarget=0;fontSize=12;" vertex="1" parent="hbklYA8rK2p1LF_I4JKN-162">
          <mxGeometry y="134" width="250" height="106" as="geometry"/>
        </mxCell>
        <mxCell id="hbklYA8rK2p1LF_I4JKN-172" value="" style="shape=partialRectangle;top=0;left=0;bottom=0;fillColor=none;align=left;verticalAlign=top;spacingLeft=4;spacingRight=4;overflow=hidden;rotatable=0;points=[];portConstraint=eastwest;part=1;fontSize=12;" vertex="1" connectable="0" parent="hbklYA8rK2p1LF_I4JKN-171">
          <mxGeometry width="30" height="106" as="geometry"/>
        </mxCell>
        <mxCell id="hbklYA8rK2p1LF_I4JKN-173" style="edgeStyle=orthogonalEdgeStyle;rounded=0;orthogonalLoop=1;jettySize=auto;html=1;exitX=0;exitY=0.5;exitDx=0;exitDy=0;" edge="1" parent="1" source="hbklYA8rK2p1LF_I4JKN-66" target="hbklYA8rK2p1LF_I4JKN-1">
          <mxGeometry relative="1" as="geometry"/>
        </mxCell>
        <mxCell id="hbklYA8rK2p1LF_I4JKN-175" value="EarlyAndLateNotes" style="swimlane;fontStyle=0;childLayout=stackLayout;horizontal=1;startSize=26;fillColor=#e0e0e0;horizontalStack=0;resizeParent=1;resizeParentMax=0;resizeLast=0;collapsible=1;marginBottom=0;swimlaneFillColor=#ffffff;align=center;fontSize=14;" vertex="1" parent="1">
          <mxGeometry x="900" y="960" width="230" height="190" as="geometry"/>
        </mxCell>
        <mxCell id="hbklYA8rK2p1LF_I4JKN-176" value="ID" style="shape=partialRectangle;top=0;left=0;right=0;bottom=1;align=left;verticalAlign=middle;fillColor=none;spacingLeft=34;spacingRight=4;overflow=hidden;rotatable=0;points=[[0,0.5],[1,0.5]];portConstraint=eastwest;dropTarget=0;fontStyle=5;fontSize=12;" vertex="1" parent="hbklYA8rK2p1LF_I4JKN-175">
          <mxGeometry y="26" width="230" height="30" as="geometry"/>
        </mxCell>
        <mxCell id="hbklYA8rK2p1LF_I4JKN-177" value="PK" style="shape=partialRectangle;top=0;left=0;bottom=0;fillColor=none;align=left;verticalAlign=middle;spacingLeft=4;spacingRight=4;overflow=hidden;rotatable=0;points=[];portConstraint=eastwest;part=1;fontSize=12;" vertex="1" connectable="0" parent="hbklYA8rK2p1LF_I4JKN-176">
          <mxGeometry width="30" height="30" as="geometry"/>
        </mxCell>
        <mxCell id="hbklYA8rK2p1LF_I4JKN-178" value="StudentID" style="shape=partialRectangle;top=0;left=0;right=0;bottom=0;align=left;verticalAlign=top;fillColor=none;spacingLeft=34;spacingRight=4;overflow=hidden;rotatable=0;points=[[0,0.5],[1,0.5]];portConstraint=eastwest;dropTarget=0;fontSize=12;" vertex="1" parent="hbklYA8rK2p1LF_I4JKN-175">
          <mxGeometry y="56" width="230" height="26" as="geometry"/>
        </mxCell>
        <mxCell id="hbklYA8rK2p1LF_I4JKN-179" value="FK1" style="shape=partialRectangle;top=0;left=0;bottom=0;fillColor=none;align=left;verticalAlign=top;spacingLeft=4;spacingRight=4;overflow=hidden;rotatable=0;points=[];portConstraint=eastwest;part=1;fontSize=12;" vertex="1" connectable="0" parent="hbklYA8rK2p1LF_I4JKN-178">
          <mxGeometry width="30" height="26" as="geometry"/>
        </mxCell>
        <mxCell id="hbklYA8rK2p1LF_I4JKN-180" value="MissingMinutes" style="shape=partialRectangle;top=0;left=0;right=0;bottom=0;align=left;verticalAlign=top;fillColor=none;spacingLeft=34;spacingRight=4;overflow=hidden;rotatable=0;points=[[0,0.5],[1,0.5]];portConstraint=eastwest;dropTarget=0;fontSize=12;" vertex="1" parent="hbklYA8rK2p1LF_I4JKN-175">
          <mxGeometry y="82" width="230" height="26" as="geometry"/>
        </mxCell>
        <mxCell id="hbklYA8rK2p1LF_I4JKN-181" value="" style="shape=partialRectangle;top=0;left=0;bottom=0;fillColor=none;align=left;verticalAlign=top;spacingLeft=4;spacingRight=4;overflow=hidden;rotatable=0;points=[];portConstraint=eastwest;part=1;fontSize=12;" vertex="1" connectable="0" parent="hbklYA8rK2p1LF_I4JKN-180">
          <mxGeometry width="30" height="26" as="geometry"/>
        </mxCell>
        <mxCell id="hbklYA8rK2p1LF_I4JKN-182" value="HourSlot" style="shape=partialRectangle;top=0;left=0;right=0;bottom=0;align=left;verticalAlign=top;fillColor=none;spacingLeft=34;spacingRight=4;overflow=hidden;rotatable=0;points=[[0,0.5],[1,0.5]];portConstraint=eastwest;dropTarget=0;fontSize=12;" vertex="1" parent="hbklYA8rK2p1LF_I4JKN-175">
          <mxGeometry y="108" width="230" height="26" as="geometry"/>
        </mxCell>
        <mxCell id="hbklYA8rK2p1LF_I4JKN-183" value="" style="shape=partialRectangle;top=0;left=0;bottom=0;fillColor=none;align=left;verticalAlign=top;spacingLeft=4;spacingRight=4;overflow=hidden;rotatable=0;points=[];portConstraint=eastwest;part=1;fontSize=12;" vertex="1" connectable="0" parent="hbklYA8rK2p1LF_I4JKN-182">
          <mxGeometry width="30" height="26" as="geometry"/>
        </mxCell>
        <mxCell id="hbklYA8rK2p1LF_I4JKN-184" value="" style="shape=partialRectangle;top=0;left=0;right=0;bottom=0;align=left;verticalAlign=top;fillColor=none;spacingLeft=34;spacingRight=4;overflow=hidden;rotatable=0;points=[[0,0.5],[1,0.5]];portConstraint=eastwest;dropTarget=0;fontSize=12;" vertex="1" parent="hbklYA8rK2p1LF_I4JKN-175">
          <mxGeometry y="134" width="230" height="26" as="geometry"/>
        </mxCell>
        <mxCell id="hbklYA8rK2p1LF_I4JKN-185" value="" style="shape=partialRectangle;top=0;left=0;bottom=0;fillColor=none;align=left;verticalAlign=top;spacingLeft=4;spacingRight=4;overflow=hidden;rotatable=0;points=[];portConstraint=eastwest;part=1;fontSize=12;" vertex="1" connectable="0" parent="hbklYA8rK2p1LF_I4JKN-184">
          <mxGeometry width="30" height="26" as="geometry"/>
        </mxCell>
        <mxCell id="hbklYA8rK2p1LF_I4JKN-186" value="" style="shape=partialRectangle;top=0;left=0;right=0;bottom=0;align=left;verticalAlign=top;fillColor=none;spacingLeft=34;spacingRight=4;overflow=hidden;rotatable=0;points=[[0,0.5],[1,0.5]];portConstraint=eastwest;dropTarget=0;fontSize=12;" vertex="1" parent="hbklYA8rK2p1LF_I4JKN-175">
          <mxGeometry y="160" width="230" height="30" as="geometry"/>
        </mxCell>
        <mxCell id="hbklYA8rK2p1LF_I4JKN-187" value="" style="shape=partialRectangle;top=0;left=0;bottom=0;fillColor=none;align=left;verticalAlign=top;spacingLeft=4;spacingRight=4;overflow=hidden;rotatable=0;points=[];portConstraint=eastwest;part=1;fontSize=12;" vertex="1" connectable="0" parent="hbklYA8rK2p1LF_I4JKN-186">
          <mxGeometry width="30" height="30" as="geometry"/>
        </mxCell>
        <mxCell id="hbklYA8rK2p1LF_I4JKN-191" value="TeacherID" style="shape=partialRectangle;top=0;left=0;right=0;bottom=0;align=left;verticalAlign=top;fillColor=none;spacingLeft=34;spacingRight=4;overflow=hidden;rotatable=0;points=[[0,0.5],[1,0.5]];portConstraint=eastwest;dropTarget=0;fontSize=12;" vertex="1" parent="1">
          <mxGeometry x="330" y="401" width="230" height="26" as="geometry"/>
        </mxCell>
        <mxCell id="hbklYA8rK2p1LF_I4JKN-192" value="FK1" style="shape=partialRectangle;top=0;left=0;bottom=0;fillColor=none;align=left;verticalAlign=top;spacingLeft=4;spacingRight=4;overflow=hidden;rotatable=0;points=[];portConstraint=eastwest;part=1;fontSize=12;" vertex="1" connectable="0" parent="hbklYA8rK2p1LF_I4JKN-191">
          <mxGeometry width="30" height="26" as="geometry"/>
        </mxCell>
        <mxCell id="hbklYA8rK2p1LF_I4JKN-200" style="edgeStyle=orthogonalEdgeStyle;rounded=0;orthogonalLoop=1;jettySize=auto;html=1;exitX=1;exitY=0.5;exitDx=0;exitDy=0;entryX=0;entryY=0.5;entryDx=0;entryDy=0;" edge="1" parent="1" source="hbklYA8rK2p1LF_I4JKN-8" target="hbklYA8rK2p1LF_I4JKN-47">
          <mxGeometry relative="1" as="geometry">
            <Array as="points">
              <mxPoint x="280" y="453"/>
              <mxPoint x="280" y="641"/>
            </Array>
          </mxGeometry>
        </mxCell>
        <mxCell id="hbklYA8rK2p1LF_I4JKN-203" style="edgeStyle=orthogonalEdgeStyle;rounded=0;orthogonalLoop=1;jettySize=auto;html=1;exitX=0;exitY=0.5;exitDx=0;exitDy=0;entryX=1;entryY=0.5;entryDx=0;entryDy=0;" edge="1" parent="1" source="hbklYA8rK2p1LF_I4JKN-156" target="hbklYA8rK2p1LF_I4JKN-2">
          <mxGeometry relative="1" as="geometry">
            <Array as="points">
              <mxPoint x="300" y="1"/>
              <mxPoint x="300" y="321"/>
            </Array>
          </mxGeometry>
        </mxCell>
        <mxCell id="hbklYA8rK2p1LF_I4JKN-204" style="edgeStyle=orthogonalEdgeStyle;rounded=0;orthogonalLoop=1;jettySize=auto;html=1;exitX=1;exitY=0.5;exitDx=0;exitDy=0;entryX=0;entryY=0.5;entryDx=0;entryDy=0;" edge="1" parent="1" source="hbklYA8rK2p1LF_I4JKN-160" target="hbklYA8rK2p1LF_I4JKN-17">
          <mxGeometry relative="1" as="geometry">
            <Array as="points">
              <mxPoint x="580" y="53"/>
              <mxPoint x="580" y="336"/>
            </Array>
          </mxGeometry>
        </mxCell>
        <mxCell id="hbklYA8rK2p1LF_I4JKN-205" style="edgeStyle=orthogonalEdgeStyle;rounded=0;orthogonalLoop=1;jettySize=auto;html=1;exitX=0;exitY=0.5;exitDx=0;exitDy=0;entryX=0;entryY=0.5;entryDx=0;entryDy=0;" edge="1" parent="1" source="hbklYA8rK2p1LF_I4JKN-96" target="hbklYA8rK2p1LF_I4JKN-17">
          <mxGeometry relative="1" as="geometry"/>
        </mxCell>
        <mxCell id="hbklYA8rK2p1LF_I4JKN-207" style="edgeStyle=orthogonalEdgeStyle;rounded=0;orthogonalLoop=1;jettySize=auto;html=1;exitX=1;exitY=0.5;exitDx=0;exitDy=0;entryX=-0.004;entryY=-0.066;entryDx=0;entryDy=0;entryPerimeter=0;" edge="1" parent="1" source="hbklYA8rK2p1LF_I4JKN-167" target="hbklYA8rK2p1LF_I4JKN-49">
          <mxGeometry relative="1" as="geometry">
            <Array as="points">
              <mxPoint x="282" y="784"/>
              <mxPoint x="282" y="654"/>
            </Array>
          </mxGeometry>
        </mxCell>
        <mxCell id="hbklYA8rK2p1LF_I4JKN-208" style="edgeStyle=orthogonalEdgeStyle;rounded=0;orthogonalLoop=1;jettySize=auto;html=1;exitX=1;exitY=0.5;exitDx=0;exitDy=0;entryX=1;entryY=0.5;entryDx=0;entryDy=0;" edge="1" parent="1" source="hbklYA8rK2p1LF_I4JKN-169" target="hbklYA8rK2p1LF_I4JKN-17">
          <mxGeometry relative="1" as="geometry">
            <mxPoint x="860" y="336" as="targetPoint"/>
            <Array as="points">
              <mxPoint x="270" y="811"/>
              <mxPoint x="270" y="880"/>
              <mxPoint x="1140" y="880"/>
              <mxPoint x="1140" y="340"/>
              <mxPoint x="930" y="340"/>
              <mxPoint x="930" y="336"/>
            </Array>
          </mxGeometry>
        </mxCell>
        <mxCell id="hbklYA8rK2p1LF_I4JKN-221" value="Assigned by" style="text;html=1;resizable=0;points=[];align=center;verticalAlign=middle;labelBackgroundColor=#ffffff;" vertex="1" connectable="0" parent="hbklYA8rK2p1LF_I4JKN-208">
          <mxGeometry x="0.835" y="-4" relative="1" as="geometry">
            <mxPoint as="offset"/>
          </mxGeometry>
        </mxCell>
        <mxCell id="hbklYA8rK2p1LF_I4JKN-210" value="Topic" style="swimlane;fontStyle=0;childLayout=stackLayout;horizontal=1;startSize=26;fillColor=#e0e0e0;horizontalStack=0;resizeParent=1;resizeParentMax=0;resizeLast=0;collapsible=1;marginBottom=0;swimlaneFillColor=#ffffff;align=center;fontSize=14;" vertex="1" parent="1">
          <mxGeometry x="900" y="626" width="230" height="134" as="geometry"/>
        </mxCell>
        <mxCell id="hbklYA8rK2p1LF_I4JKN-211" value="ID" style="shape=partialRectangle;top=0;left=0;right=0;bottom=1;align=left;verticalAlign=middle;fillColor=none;spacingLeft=34;spacingRight=4;overflow=hidden;rotatable=0;points=[[0,0.5],[1,0.5]];portConstraint=eastwest;dropTarget=0;fontStyle=5;fontSize=12;" vertex="1" parent="hbklYA8rK2p1LF_I4JKN-210">
          <mxGeometry y="26" width="230" height="30" as="geometry"/>
        </mxCell>
        <mxCell id="hbklYA8rK2p1LF_I4JKN-212" value="PK" style="shape=partialRectangle;top=0;left=0;bottom=0;fillColor=none;align=left;verticalAlign=middle;spacingLeft=4;spacingRight=4;overflow=hidden;rotatable=0;points=[];portConstraint=eastwest;part=1;fontSize=12;" vertex="1" connectable="0" parent="hbklYA8rK2p1LF_I4JKN-211">
          <mxGeometry width="30" height="30" as="geometry"/>
        </mxCell>
        <mxCell id="hbklYA8rK2p1LF_I4JKN-213" value="Name" style="shape=partialRectangle;top=0;left=0;right=0;bottom=0;align=left;verticalAlign=top;fillColor=none;spacingLeft=34;spacingRight=4;overflow=hidden;rotatable=0;points=[[0,0.5],[1,0.5]];portConstraint=eastwest;dropTarget=0;fontSize=12;" vertex="1" parent="hbklYA8rK2p1LF_I4JKN-210">
          <mxGeometry y="56" width="230" height="26" as="geometry"/>
        </mxCell>
        <mxCell id="hbklYA8rK2p1LF_I4JKN-214" value="" style="shape=partialRectangle;top=0;left=0;bottom=0;fillColor=none;align=left;verticalAlign=top;spacingLeft=4;spacingRight=4;overflow=hidden;rotatable=0;points=[];portConstraint=eastwest;part=1;fontSize=12;" vertex="1" connectable="0" parent="hbklYA8rK2p1LF_I4JKN-213">
          <mxGeometry width="30" height="26" as="geometry"/>
        </mxCell>
        <mxCell id="hbklYA8rK2p1LF_I4JKN-215" value="Description" style="shape=partialRectangle;top=0;left=0;right=0;bottom=0;align=left;verticalAlign=top;fillColor=none;spacingLeft=34;spacingRight=4;overflow=hidden;rotatable=0;points=[[0,0.5],[1,0.5]];portConstraint=eastwest;dropTarget=0;fontSize=12;" vertex="1" parent="hbklYA8rK2p1LF_I4JKN-210">
          <mxGeometry y="82" width="230" height="26" as="geometry"/>
        </mxCell>
        <mxCell id="hbklYA8rK2p1LF_I4JKN-216" value="" style="shape=partialRectangle;top=0;left=0;bottom=0;fillColor=none;align=left;verticalAlign=top;spacingLeft=4;spacingRight=4;overflow=hidden;rotatable=0;points=[];portConstraint=eastwest;part=1;fontSize=12;" vertex="1" connectable="0" parent="hbklYA8rK2p1LF_I4JKN-215">
          <mxGeometry width="30" height="26" as="geometry"/>
        </mxCell>
        <mxCell id="hbklYA8rK2p1LF_I4JKN-217" value="..." style="shape=partialRectangle;top=0;left=0;right=0;bottom=0;align=left;verticalAlign=top;fillColor=none;spacingLeft=34;spacingRight=4;overflow=hidden;rotatable=0;points=[[0,0.5],[1,0.5]];portConstraint=eastwest;dropTarget=0;fontSize=12;" vertex="1" parent="hbklYA8rK2p1LF_I4JKN-210">
          <mxGeometry y="108" width="230" height="26" as="geometry"/>
        </mxCell>
        <mxCell id="hbklYA8rK2p1LF_I4JKN-218" value="" style="shape=partialRectangle;top=0;left=0;bottom=0;fillColor=none;align=left;verticalAlign=top;spacingLeft=4;spacingRight=4;overflow=hidden;rotatable=0;points=[];portConstraint=eastwest;part=1;fontSize=12;" vertex="1" connectable="0" parent="hbklYA8rK2p1LF_I4JKN-217">
          <mxGeometry width="30" height="26" as="geometry"/>
        </mxCell>
        <mxCell id="hbklYA8rK2p1LF_I4JKN-225" style="edgeStyle=orthogonalEdgeStyle;rounded=0;orthogonalLoop=1;jettySize=auto;html=1;exitX=1;exitY=0.5;exitDx=0;exitDy=0;entryX=0;entryY=0.5;entryDx=0;entryDy=0;" edge="1" parent="1" source="hbklYA8rK2p1LF_I4JKN-79" target="hbklYA8rK2p1LF_I4JKN-211">
          <mxGeometry relative="1" as="geometry"/>
        </mxCell>
        <mxCell id="hbklYA8rK2p1LF_I4JKN-226" style="edgeStyle=orthogonalEdgeStyle;rounded=0;orthogonalLoop=1;jettySize=auto;html=1;exitX=1;exitY=0.5;exitDx=0;exitDy=0;entryX=0.002;entryY=0.076;entryDx=0;entryDy=0;entryPerimeter=0;" edge="1" parent="1" source="hbklYA8rK2p1LF_I4JKN-74" target="hbklYA8rK2p1LF_I4JKN-211">
          <mxGeometry relative="1" as="geometry"/>
        </mxCell>
        <mxCell id="hbklYA8rK2p1LF_I4JKN-227" value="Timetable" style="swimlane;fontStyle=0;childLayout=stackLayout;horizontal=1;startSize=26;fillColor=#e0e0e0;horizontalStack=0;resizeParent=1;resizeParentMax=0;resizeLast=0;collapsible=1;marginBottom=0;swimlaneFillColor=#ffffff;align=center;fontSize=14;" vertex="1" parent="1">
          <mxGeometry x="285" y="945" width="230" height="190" as="geometry"/>
        </mxCell>
        <mxCell id="hbklYA8rK2p1LF_I4JKN-228" value="ID" style="shape=partialRectangle;top=0;left=0;right=0;bottom=1;align=left;verticalAlign=middle;fillColor=none;spacingLeft=34;spacingRight=4;overflow=hidden;rotatable=0;points=[[0,0.5],[1,0.5]];portConstraint=eastwest;dropTarget=0;fontStyle=5;fontSize=12;" vertex="1" parent="hbklYA8rK2p1LF_I4JKN-227">
          <mxGeometry y="26" width="230" height="30" as="geometry"/>
        </mxCell>
        <mxCell id="hbklYA8rK2p1LF_I4JKN-229" value="PK" style="shape=partialRectangle;top=0;left=0;bottom=0;fillColor=none;align=left;verticalAlign=middle;spacingLeft=4;spacingRight=4;overflow=hidden;rotatable=0;points=[];portConstraint=eastwest;part=1;fontSize=12;" vertex="1" connectable="0" parent="hbklYA8rK2p1LF_I4JKN-228">
          <mxGeometry width="30" height="30" as="geometry"/>
        </mxCell>
        <mxCell id="hbklYA8rK2p1LF_I4JKN-230" value="SpecificClassID" style="shape=partialRectangle;top=0;left=0;right=0;bottom=0;align=left;verticalAlign=top;fillColor=none;spacingLeft=34;spacingRight=4;overflow=hidden;rotatable=0;points=[[0,0.5],[1,0.5]];portConstraint=eastwest;dropTarget=0;fontSize=12;" vertex="1" parent="hbklYA8rK2p1LF_I4JKN-227">
          <mxGeometry y="56" width="230" height="26" as="geometry"/>
        </mxCell>
        <mxCell id="hbklYA8rK2p1LF_I4JKN-231" value="" style="shape=partialRectangle;top=0;left=0;bottom=0;fillColor=none;align=left;verticalAlign=top;spacingLeft=4;spacingRight=4;overflow=hidden;rotatable=0;points=[];portConstraint=eastwest;part=1;fontSize=12;" vertex="1" connectable="0" parent="hbklYA8rK2p1LF_I4JKN-230">
          <mxGeometry width="30" height="26" as="geometry"/>
        </mxCell>
        <mxCell id="hbklYA8rK2p1LF_I4JKN-234" value="HourSlot1Teacher" style="shape=partialRectangle;top=0;left=0;right=0;bottom=0;align=left;verticalAlign=top;fillColor=none;spacingLeft=34;spacingRight=4;overflow=hidden;rotatable=0;points=[[0,0.5],[1,0.5]];portConstraint=eastwest;dropTarget=0;fontSize=12;" vertex="1" parent="hbklYA8rK2p1LF_I4JKN-227">
          <mxGeometry y="82" width="230" height="26" as="geometry"/>
        </mxCell>
        <mxCell id="hbklYA8rK2p1LF_I4JKN-235" value="" style="shape=partialRectangle;top=0;left=0;bottom=0;fillColor=none;align=left;verticalAlign=top;spacingLeft=4;spacingRight=4;overflow=hidden;rotatable=0;points=[];portConstraint=eastwest;part=1;fontSize=12;" vertex="1" connectable="0" parent="hbklYA8rK2p1LF_I4JKN-234">
          <mxGeometry width="30" height="26" as="geometry"/>
        </mxCell>
        <mxCell id="hbklYA8rK2p1LF_I4JKN-236" value="HourSlot2Teacher" style="shape=partialRectangle;top=0;left=0;right=0;bottom=0;align=left;verticalAlign=top;fillColor=none;spacingLeft=34;spacingRight=4;overflow=hidden;rotatable=0;points=[[0,0.5],[1,0.5]];portConstraint=eastwest;dropTarget=0;fontSize=12;" vertex="1" parent="hbklYA8rK2p1LF_I4JKN-227">
          <mxGeometry y="108" width="230" height="26" as="geometry"/>
        </mxCell>
        <mxCell id="hbklYA8rK2p1LF_I4JKN-237" value="" style="shape=partialRectangle;top=0;left=0;bottom=0;fillColor=none;align=left;verticalAlign=top;spacingLeft=4;spacingRight=4;overflow=hidden;rotatable=0;points=[];portConstraint=eastwest;part=1;fontSize=12;" vertex="1" connectable="0" parent="hbklYA8rK2p1LF_I4JKN-236">
          <mxGeometry width="30" height="26" as="geometry"/>
        </mxCell>
        <mxCell id="hbklYA8rK2p1LF_I4JKN-238" value="..." style="shape=partialRectangle;top=0;left=0;right=0;bottom=0;align=left;verticalAlign=top;fillColor=none;spacingLeft=34;spacingRight=4;overflow=hidden;rotatable=0;points=[[0,0.5],[1,0.5]];portConstraint=eastwest;dropTarget=0;fontSize=12;" vertex="1" parent="hbklYA8rK2p1LF_I4JKN-227">
          <mxGeometry y="134" width="230" height="30" as="geometry"/>
        </mxCell>
        <mxCell id="hbklYA8rK2p1LF_I4JKN-239" value="" style="shape=partialRectangle;top=0;left=0;bottom=0;fillColor=none;align=left;verticalAlign=top;spacingLeft=4;spacingRight=4;overflow=hidden;rotatable=0;points=[];portConstraint=eastwest;part=1;fontSize=12;" vertex="1" connectable="0" parent="hbklYA8rK2p1LF_I4JKN-238">
          <mxGeometry width="30" height="30" as="geometry"/>
        </mxCell>
        <mxCell id="hbklYA8rK2p1LF_I4JKN-243" value="HourSlot5Teacher" style="shape=partialRectangle;top=0;left=0;right=0;bottom=0;align=left;verticalAlign=top;fillColor=none;spacingLeft=34;spacingRight=4;overflow=hidden;rotatable=0;points=[[0,0.5],[1,0.5]];portConstraint=eastwest;dropTarget=0;fontSize=12;" vertex="1" parent="hbklYA8rK2p1LF_I4JKN-227">
          <mxGeometry y="164" width="230" height="26" as="geometry"/>
        </mxCell>
        <mxCell id="hbklYA8rK2p1LF_I4JKN-244" value="" style="shape=partialRectangle;top=0;left=0;bottom=0;fillColor=none;align=left;verticalAlign=top;spacingLeft=4;spacingRight=4;overflow=hidden;rotatable=0;points=[];portConstraint=eastwest;part=1;fontSize=12;" vertex="1" connectable="0" parent="hbklYA8rK2p1LF_I4JKN-243">
          <mxGeometry width="30" height="26" as="geometry"/>
        </mxCell>
        <mxCell id="hbklYA8rK2p1LF_I4JKN-245" style="edgeStyle=orthogonalEdgeStyle;rounded=0;orthogonalLoop=1;jettySize=auto;html=1;exitX=0;exitY=0.5;exitDx=0;exitDy=0;entryX=0;entryY=0.5;entryDx=0;entryDy=0;" edge="1" parent="1" source="hbklYA8rK2p1LF_I4JKN-230" target="hbklYA8rK2p1LF_I4JKN-47">
          <mxGeometry relative="1" as="geometry"/>
        </mxCell>
        <mxCell id="hbklYA8rK2p1LF_I4JKN-247" style="edgeStyle=orthogonalEdgeStyle;rounded=0;orthogonalLoop=1;jettySize=auto;html=1;exitX=1;exitY=0.5;exitDx=0;exitDy=0;entryX=1;entryY=0.5;entryDx=0;entryDy=0;" edge="1" parent="1" source="hbklYA8rK2p1LF_I4JKN-234" target="hbklYA8rK2p1LF_I4JKN-19">
          <mxGeometry relative="1" as="geometry">
            <Array as="points">
              <mxPoint x="550" y="1040"/>
              <mxPoint x="550" y="880"/>
              <mxPoint x="1140" y="880"/>
              <mxPoint x="1140" y="363"/>
            </Array>
          </mxGeometry>
        </mxCell>
        <mxCell id="hbklYA8rK2p1LF_I4JKN-248" value="Assigned for" style="text;html=1;resizable=0;points=[];align=center;verticalAlign=middle;labelBackgroundColor=#ffffff;" vertex="1" connectable="0" parent="hbklYA8rK2p1LF_I4JKN-247">
          <mxGeometry x="0.7585" relative="1" as="geometry">
            <mxPoint as="offset"/>
          </mxGeometry>
        </mxCell>
        <mxCell id="hbklYA8rK2p1LF_I4JKN-264" style="edgeStyle=orthogonalEdgeStyle;rounded=0;orthogonalLoop=1;jettySize=auto;html=1;exitX=1;exitY=0.5;exitDx=0;exitDy=0;entryX=1;entryY=0.5;entryDx=0;entryDy=0;" edge="1" parent="1" source="hbklYA8rK2p1LF_I4JKN-49" target="hbklYA8rK2p1LF_I4JKN-34">
          <mxGeometry relative="1" as="geometry"/>
        </mxCell>
        <mxCell id="hbklYA8rK2p1LF_I4JKN-265" style="edgeStyle=orthogonalEdgeStyle;rounded=0;orthogonalLoop=1;jettySize=auto;html=1;exitX=1;exitY=0.5;exitDx=0;exitDy=0;entryX=0.001;entryY=-0.132;entryDx=0;entryDy=0;entryPerimeter=0;" edge="1" parent="1" source="hbklYA8rK2p1LF_I4JKN-57" target="hbklYA8rK2p1LF_I4JKN-79">
          <mxGeometry relative="1" as="geometry"/>
        </mxCell>
        <mxCell id="hbklYA8rK2p1LF_I4JKN-266" style="edgeStyle=orthogonalEdgeStyle;rounded=0;orthogonalLoop=1;jettySize=auto;html=1;exitX=0;exitY=0.5;exitDx=0;exitDy=0;entryX=1;entryY=0.5;entryDx=0;entryDy=0;strokeColor=#666666;fillColor=#f5f5f5;" edge="1" parent="1" source="hbklYA8rK2p1LF_I4JKN-90" target="hbklYA8rK2p1LF_I4JKN-2">
          <mxGeometry relative="1" as="geometry">
            <Array as="points">
              <mxPoint x="300" y="179"/>
              <mxPoint x="300" y="321"/>
            </Array>
          </mxGeometry>
        </mxCell>
      </root>
    </mxGraphModel>
  </diagram>
</mxfile>
